<?xml version="1.0" standalone="no"?>
<!DOCTYPE svg PUBLIC "-//W3C//DTD SVG 20010904//EN"
 "http://www.w3.org/TR/2001/REC-SVG-20010904/DTD/svg10.dtd">
<svg version="1.0" xmlns="http://www.w3.org/2000/svg"
 width="1280.000000pt" height="1280.000000pt" viewBox="0 0 1280.000000 1280.000000"
 preserveAspectRatio="xMidYMid meet">
<metadata>
Created by potrace 1.11, written by Peter Selinger 2001-2013
</metadata>
<g transform="translate(0.000000,1280.000000) scale(0.100000,-0.100000)"
fill="#000000" stroke="none">
<path d="M4430 9125 c-7 -9 -15 -14 -17 -11 -2 2 -21 -1 -41 -6 -20 -5 -47
-11 -59 -14 -13 -2 -35 -7 -50 -10 -16 -3 -43 -6 -60 -7 -18 -1 -33 -4 -33 -7
0 -3 -14 -7 -32 -8 -18 -2 -36 -8 -40 -15 -5 -8 -8 -8 -8 -1 0 8 -13 9 -37 5
-21 -4 -48 -6 -60 -5 -13 1 -23 -2 -23 -6 0 -4 -6 -7 -12 -7 -7 -1 -73 -3
-146 -6 -74 -3 -136 -8 -139 -11 -4 -3 -13 0 -21 7 -13 10 -14 9 -7 -2 6 -11
4 -13 -8 -8 -10 3 -17 2 -17 -4 0 -6 -4 -8 -8 -5 -7 4 -184 8 -242 5 -8 -1
-62 -1 -120 0 -58 0 -112 0 -120 0 -8 -1 -62 -1 -120 0 -58 0 -112 0 -120 0
-19 -1 -216 0 -295 2 -33 1 -67 1 -75 0 -8 0 -62 0 -120 0 -58 1 -112 1 -120
0 -8 0 -62 0 -120 0 -58 1 -112 1 -120 0 -8 0 -62 0 -120 0 -58 1 -112 1 -120
0 -8 0 -62 0 -120 0 -58 1 -112 1 -120 0 -8 0 -62 0 -120 0 -58 1 -112 1 -120
0 -8 0 -62 0 -120 0 -58 1 -112 1 -120 0 -8 0 -48 -1 -88 0 -46 0 -80 -5 -90
-13 -13 -11 -15 -11 -7 2 4 8 -1 6 -12 -5 -24 -24 -19 -65 8 -65 11 0 19 -5
19 -11 0 -8 4 -8 13 -2 14 11 57 11 74 0 6 -4 14 -4 17 1 4 7 91 8 91 2 0 -3
25 -7 63 -12 12 -1 22 -6 22 -10 0 -4 6 -8 13 -8 21 0 101 -41 110 -56 4 -8
13 -14 18 -14 14 0 39 -26 39 -40 0 -6 3 -9 8 -7 9 5 42 -29 35 -37 -3 -3 2
-8 11 -12 9 -3 14 -10 11 -14 -3 -4 2 -11 11 -14 8 -3 12 -10 9 -16 -3 -5 -1
-10 4 -10 6 0 11 -7 11 -15 0 -8 5 -15 11 -15 5 0 8 -3 6 -7 -3 -5 0 -19 6
-33 5 -14 12 -50 14 -80 5 -53 7 -4247 3 -4363 -1 -31 -6 -60 -11 -63 -5 -3
-7 -9 -4 -14 3 -5 1 -11 -5 -15 -6 -4 -8 -11 -5 -16 4 -5 1 -9 -5 -9 -6 0 -8
-4 -5 -10 3 -5 1 -10 -4 -10 -6 0 -10 -4 -8 -9 6 -21 -148 -200 -161 -186 -3
2 -10 -2 -16 -11 -6 -8 -21 -16 -34 -17 -12 0 -22 -4 -22 -8 0 -10 -61 -30
-71 -23 -5 3 -9 1 -9 -4 0 -11 -11 -12 -135 -15 -114 -3 -141 -10 -148 -38 -6
-20 19 -53 33 -44 5 3 11 1 15 -5 4 -6 12 -7 24 0 12 6 22 5 29 -2 9 -9 12 -9
12 0 0 8 7 9 25 2 16 -6 26 -6 31 1 3 5 11 6 17 2 15 -10 38 -10 54 0 8 5 13
3 13 -3 0 -7 6 -8 17 -1 10 5 26 5 40 0 14 -5 23 -5 23 1 0 5 12 5 30 0 21 -6
30 -5 30 3 0 8 3 8 8 2 8 -11 192 -14 192 -3 0 4 11 3 25 -2 16 -6 26 -6 31 1
3 5 11 6 17 2 15 -10 38 -10 55 0 7 5 12 3 12 -3 0 -7 6 -8 17 -1 10 5 26 5
40 0 14 -5 23 -5 23 1 0 5 12 5 30 0 21 -6 30 -5 30 3 0 8 3 8 8 2 8 -11 212
-14 212 -4 0 4 16 3 35 -1 20 -4 38 -4 41 1 3 5 10 6 16 3 15 -9 68 -11 68 -3
0 4 16 3 35 -1 20 -4 38 -4 41 1 3 5 10 6 16 3 6 -4 30 -7 53 -7 23 0 47 3 53
7 6 3 13 2 17 -4 4 -6 12 -7 24 0 12 6 22 5 31 -3 10 -9 14 -9 17 0 3 9 10 10
22 4 9 -5 23 -6 31 -1 7 4 24 4 37 -1 14 -5 23 -5 23 1 0 6 9 6 23 1 13 -5 30
-6 37 -1 7 5 24 4 36 0 15 -6 24 -5 28 3 3 8 5 8 5 -2 1 -11 4 -11 16 -1 8 7
15 10 15 6 0 -4 11 1 25 10 23 15 24 17 8 40 -9 14 -22 23 -29 20 -8 -3 -14
-2 -14 2 0 4 -45 8 -101 8 -76 0 -103 4 -110 15 -5 8 -9 9 -9 2 0 -8 -8 -8
-32 0 -18 7 -35 14 -38 17 -3 3 -13 6 -23 8 -28 5 -106 56 -107 69 0 7 -3 12
-8 10 -9 -3 -52 40 -52 54 0 5 -4 7 -10 4 -5 -3 -10 -1 -10 5 0 6 -9 20 -20
32 -11 12 -20 28 -20 35 0 7 -6 13 -12 13 -9 0 -8 4 2 10 9 6 10 10 3 10 -18
0 -38 51 -38 98 1 23 -2 42 -6 42 -5 0 -6 9 -4 20 2 11 -1 22 -6 25 -5 4 -7
10 -4 15 3 5 6 451 8 992 l2 983 612 1 c427 0 610 -3 605 -10 -4 -7 -1 -7 9 0
20 15 161 16 152 1 -5 -9 -3 -9 8 -1 15 12 220 12 274 -1 83 -19 105 -27 105
-36 0 -5 7 -9 15 -9 8 0 15 -5 15 -11 0 -5 3 -8 8 -6 4 2 15 -4 25 -15 9 -10
14 -18 11 -18 -3 0 4 -13 15 -29 12 -16 21 -36 21 -44 0 -9 5 -19 10 -22 6 -3
10 -17 10 -31 0 -13 4 -24 8 -24 5 0 10 -46 11 -102 2 -89 5 -104 23 -120 25
-22 21 -22 44 0 13 11 19 30 19 57 0 22 4 43 10 48 7 5 7 9 0 15 -12 8 -13 61
-3 78 4 6 4 14 0 18 -11 12 -9 126 3 126 7 0 7 3 0 8 -6 4 -11 21 -11 37 0 17
5 33 11 38 7 5 7 9 0 15 -12 8 -13 61 -3 78 4 6 4 14 0 18 -11 12 -9 120 3
129 7 5 7 9 0 15 -12 8 -13 61 -3 78 4 6 4 14 0 18 -11 12 -9 120 3 129 7 5 7
9 0 15 -12 8 -13 61 -3 78 4 6 4 14 0 18 -10 11 -10 126 0 126 5 0 4 8 -1 18
-5 9 -9 19 -9 22 -3 39 -41 53 -69 25 -11 -11 -14 -33 -11 -90 2 -41 -1 -75
-5 -75 -4 0 -7 -6 -6 -12 5 -24 -13 -98 -22 -98 -6 0 -7 -4 -4 -10 3 -5 1 -10
-4 -10 -6 0 -10 -3 -10 -7 3 -18 -2 -31 -21 -54 -43 -51 -62 -69 -70 -64 -4 3
-11 -2 -14 -11 -4 -9 -13 -14 -21 -10 -8 3 -15 1 -15 -5 0 -6 -4 -8 -9 -4 -5
3 -12 1 -15 -4 -4 -5 -14 -8 -24 -6 -9 1 -23 -2 -29 -8 -9 -6 -13 -5 -13 4 0
12 -2 12 -9 0 -5 -8 -16 -11 -27 -7 -10 4 -21 1 -26 -6 -5 -9 -11 -9 -15 -3
-9 12 -93 13 -111 1 -7 -4 -12 -3 -12 1 0 13 -93 10 -102 -2 -5 -7 -11 -7 -15
0 -9 12 -93 13 -111 1 -7 -4 -12 -3 -12 1 0 13 -93 10 -102 -2 -5 -7 -11 -7
-15 0 -9 12 -93 13 -111 1 -7 -4 -12 -3 -12 1 0 13 -93 10 -102 -2 -5 -7 -11
-7 -15 0 -9 12 -93 13 -111 1 -7 -4 -12 -3 -12 1 0 13 -93 10 -103 -2 -6 -7
-10 -7 -13 0 -5 11 -174 12 -192 1 -7 -4 -12 -3 -12 1 0 13 -93 10 -102 -2 -5
-7 -11 -7 -15 0 -9 12 -93 13 -111 1 -7 -4 -12 -3 -12 1 0 5 -23 8 -50 8 -28
0 -50 -3 -50 -8 0 -4 -8 -4 -17 1 -10 5 -24 7 -31 5 -10 -4 -13 24 -12 134 1
76 0 143 -1 148 -1 6 -1 14 0 18 2 11 2 1568 0 1582 -1 6 -1 14 0 19 5 24 2
287 -3 294 -3 5 -2 12 1 16 4 4 7 19 8 34 0 15 5 27 10 27 6 0 16 4 23 8 6 5
12 5 12 0 0 -9 774 -8 789 2 6 3 11 3 11 -2 0 -12 154 -10 162 2 5 7 8 7 8 0
0 -12 122 -11 140 0 9 6 11 4 5 -6 -7 -11 -6 -12 7 -2 8 7 18 10 21 6 11 -11
57 -10 57 2 0 6 3 7 8 0 8 -12 42 -13 60 -2 6 5 12 5 12 0 0 -12 533 -10 542
2 5 7 8 6 8 0 0 -12 8 -13 90 -17 30 -2 58 -7 62 -13 5 -6 8 -5 8 3 0 8 5 9
18 3 9 -5 38 -19 65 -31 26 -13 47 -27 47 -32 0 -4 5 -8 11 -8 14 0 39 -26 39
-40 0 -6 5 -8 10 -5 6 3 10 0 10 -7 0 -7 11 -26 25 -42 14 -17 28 -41 32 -55
3 -14 10 -28 14 -31 5 -3 9 -20 11 -38 1 -18 5 -32 9 -32 4 0 7 -47 8 -105 2
-119 5 -132 32 -140 20 -7 49 14 49 35 0 6 5 8 12 4 7 -4 8 -3 4 5 -13 20 -16
72 -5 65 8 -4 8 0 2 12 -10 21 -11 669 -1 679 3 4 3 19 -1 33 -4 15 -7 48 -6
75 1 29 -3 51 -12 58 -7 6 -13 8 -13 4 0 -4 -6 -2 -14 4 -10 9 -16 8 -26 -4z"/>
<path d="M5524 9009 c-24 -16 -24 -16 -5 -38 11 -13 25 -20 30 -16 6 3 11 0
11 -7 0 -8 3 -9 8 -3 8 12 42 13 60 2 7 -5 12 -3 12 3 0 6 4 9 8 6 5 -3 28 -6
51 -7 23 -2 44 -6 47 -10 2 -4 13 -6 24 -4 11 2 20 0 20 -6 0 -5 18 -16 40
-25 22 -9 40 -20 40 -25 0 -5 6 -9 14 -9 7 0 21 -11 32 -24 10 -14 22 -23 26
-20 5 3 14 -8 21 -25 7 -17 16 -29 19 -26 10 10 73 -101 84 -147 1 -5 3 -11 4
-15 1 -5 2 -11 1 -15 0 -5 4 -8 10 -8 7 0 9 -10 7 -25 -3 -14 -1 -25 4 -25 5
0 6 -5 2 -11 -4 -6 -7 -33 -7 -59 0 -26 3 -53 7 -59 4 -6 4 -11 -1 -11 -9 0
-8 -174 2 -189 3 -6 3 -11 -2 -11 -10 0 -8 -93 1 -109 4 -6 4 -11 -1 -11 -10
0 -9 -173 1 -189 4 -6 4 -11 -1 -11 -10 0 -8 -93 1 -109 4 -6 4 -11 -1 -11 -9
0 -8 -174 2 -189 3 -6 3 -11 -2 -11 -10 0 -8 -93 1 -109 4 -6 4 -11 -1 -11
-10 0 -9 -173 1 -189 4 -6 4 -11 -1 -11 -10 0 -8 -93 1 -109 4 -6 4 -11 -1
-11 -9 0 -8 -174 2 -189 3 -6 3 -11 -2 -11 -10 0 -8 -93 1 -109 4 -6 4 -11 -1
-11 -10 0 -9 -173 1 -189 4 -6 4 -11 -1 -11 -10 0 -8 -93 1 -109 4 -6 4 -11
-1 -11 -4 0 -8 -22 -8 -50 0 -27 4 -50 8 -50 5 0 5 -5 1 -11 -4 -6 -7 -33 -7
-59 0 -26 3 -53 7 -59 4 -6 4 -11 -1 -11 -10 0 -8 -93 1 -109 4 -6 4 -11 -1
-11 -10 0 -8 -93 1 -109 4 -6 4 -11 -1 -11 -4 0 -7 -20 -5 -45 3 -32 0 -45 -9
-45 -8 0 -5 -6 7 -15 10 -8 15 -15 9 -15 -8 0 -12 -90 -4 -110 1 -3 1 -8 1
-11 -5 -37 -2 -460 3 -468 3 -6 3 -11 -2 -11 -10 0 -8 -93 1 -109 4 -6 3 -11
-1 -11 -5 0 -7 -18 -5 -40 3 -24 -1 -47 -9 -57 -8 -10 -9 -14 -2 -10 6 4 14 3
18 -3 3 -5 3 -10 -2 -10 -10 0 -8 -93 1 -109 4 -6 4 -11 -1 -11 -8 0 -9 -97
-2 -105 2 -2 2 -82 -1 -179 -3 -97 -1 -176 3 -176 5 0 5 -5 1 -11 -4 -6 -7
-33 -7 -59 0 -26 3 -53 7 -59 4 -6 4 -11 -1 -11 -10 0 -8 -93 1 -109 4 -6 4
-11 -1 -11 -4 0 -7 -26 -6 -57 1 -32 -3 -64 -9 -70 -6 -7 -8 -13 -4 -13 3 0
-6 -23 -21 -51 -16 -29 -32 -60 -38 -70 -5 -11 -15 -19 -22 -19 -7 0 -12 -3
-12 -7 3 -20 -2 -34 -10 -28 -5 3 -13 -4 -16 -16 -4 -11 -9 -18 -12 -15 -3 2
-15 -6 -28 -20 -12 -13 -27 -24 -34 -24 -6 0 -11 -4 -11 -9 0 -5 -11 -12 -25
-15 -14 -4 -25 -11 -25 -17 0 -6 -5 -7 -10 -4 -6 4 -18 1 -26 -6 -9 -7 -30
-14 -47 -15 -18 -1 -32 -3 -32 -4 0 -1 -31 -4 -68 -5 -38 -2 -71 -5 -74 -8 -3
-3 -11 -3 -17 -1 -7 3 -18 -2 -25 -10 -10 -12 -9 -20 3 -43 8 -15 15 -22 16
-14 0 10 3 11 13 3 7 -6 18 -8 24 -4 6 4 59 5 117 2 58 -3 106 -2 106 1 0 4
16 3 35 -1 20 -4 38 -4 41 1 3 5 10 6 16 3 15 -9 68 -11 68 -3 0 4 16 3 35 -1
20 -4 38 -4 41 1 3 5 10 7 15 3 14 -8 209 -10 209 -2 0 4 11 3 25 -2 16 -6 26
-6 31 1 3 5 11 6 17 2 15 -10 38 -10 55 0 7 5 12 3 12 -3 0 -7 6 -8 17 -1 10
5 26 5 40 0 14 -5 23 -5 23 1 0 5 12 5 30 0 21 -6 30 -5 30 3 0 8 3 8 8 2 8
-11 212 -14 212 -4 0 4 16 3 35 -1 20 -4 38 -4 41 1 3 5 10 6 16 3 15 -9 68
-11 68 -3 0 4 16 3 35 -1 20 -4 38 -4 41 1 3 5 10 6 17 2 12 -7 101 -5 130 3
9 3 15 10 12 15 -4 5 -1 9 4 9 8 0 7 7 -1 19 -7 11 -16 17 -20 15 -4 -3 -8 -2
-8 3 0 4 -35 8 -78 7 -43 0 -80 5 -84 10 -5 7 -8 6 -8 -2 0 -8 -5 -10 -12 -5
-7 4 -22 9 -33 10 -11 2 -22 8 -23 13 -2 6 -8 8 -13 4 -5 -3 -9 0 -9 5 0 6 -3
10 -7 9 -15 -4 -53 13 -53 23 0 6 -4 7 -10 4 -5 -3 -10 -1 -10 4 0 6 -4 11
-10 11 -9 0 -35 26 -109 109 -16 19 -28 38 -25 43 3 4 0 8 -5 8 -6 0 -11 9
-11 21 0 11 -4 17 -10 14 -6 -4 -10 7 -10 25 0 21 -4 29 -12 24 -8 -5 -9 -2
-5 9 3 10 3 17 -1 17 -9 0 -9 4693 0 4700 5 4 1030 3 1068 -1 8 -1 18 -7 22
-13 5 -7 8 -7 8 2 0 8 5 10 12 6 6 -4 31 -9 54 -10 24 -2 58 -11 75 -19 17 -9
28 -11 24 -5 -5 8 -2 9 11 2 60 -32 103 -50 108 -45 3 4 6 1 6 -6 0 -6 10 -16
23 -21 32 -14 59 -33 79 -53 9 -10 18 -17 20 -15 6 6 48 -29 41 -35 -3 -4 0
-7 8 -7 8 0 23 -11 33 -25 10 -13 23 -22 29 -18 5 3 7 1 4 -4 -4 -6 5 -23 18
-37 14 -15 25 -33 25 -40 0 -8 7 -16 15 -20 8 -3 15 -12 15 -21 0 -8 5 -15 10
-15 6 0 10 -9 10 -20 0 -11 4 -20 9 -20 5 0 15 -16 21 -35 6 -19 16 -35 21
-35 5 0 8 -3 7 -7 -1 -5 3 -18 10 -30 7 -13 10 -23 6 -23 -3 0 1 -11 10 -25 9
-13 16 -33 16 -45 0 -11 4 -20 8 -20 4 0 9 -14 10 -32 2 -17 8 -38 14 -45 6
-7 8 -13 5 -13 -3 0 -1 -17 4 -37 14 -58 21 -105 23 -143 1 -19 5 -41 10 -48
4 -7 5 -16 2 -19 -3 -3 0 -13 7 -21 10 -13 9 -14 -3 -7 -12 7 -13 6 -5 -6 7
-9 10 -89 8 -214 -2 -202 -4 -229 -16 -241 -3 -4 -2 -15 4 -25 7 -13 6 -19 -2
-19 -6 0 -9 -7 -5 -15 3 -8 1 -15 -5 -15 -6 0 -8 -4 -5 -9 3 -5 -2 -33 -10
-62 -9 -30 -17 -58 -18 -64 -4 -18 -18 -59 -31 -90 -22 -51 -28 -70 -27 -77 1
-5 -3 -8 -8 -8 -6 0 -10 -7 -10 -15 0 -8 -9 -24 -20 -35 -11 -11 -20 -21 -19
-22 3 -12 -15 -36 -24 -31 -6 3 -7 1 -3 -6 5 -7 -7 -26 -28 -47 -20 -20 -36
-40 -36 -46 0 -5 -4 -6 -10 -3 -5 3 -10 -1 -10 -10 0 -8 -8 -19 -17 -22 -10
-4 -26 -16 -37 -27 -10 -12 -22 -20 -27 -19 -5 2 -9 -4 -9 -13 0 -8 -4 -13 -8
-10 -5 3 -25 -10 -47 -29 -21 -19 -42 -32 -46 -29 -5 3 -9 0 -9 -6 0 -9 -49
-34 -59 -30 -2 1 -7 -4 -12 -12 -5 -7 -12 -13 -16 -13 -4 -1 -19 -7 -33 -15
-14 -7 -26 -13 -27 -12 -9 6 -33 0 -29 -6 3 -5 0 -9 -7 -10 -52 -4 -98 -20
-109 -36 -5 -7 -8 -7 -8 2 0 10 -5 10 -20 2 -11 -6 -25 -8 -30 -5 -6 3 -10 2
-10 -3 0 -5 -6 -9 -12 -10 -18 -2 -77 -11 -113 -17 -49 -9 -94 -14 -190 -20
-49 -3 -106 -7 -125 -9 -19 -2 -41 1 -47 6 -8 6 -13 6 -13 1 0 -11 -115 -11
-126 -1 -3 4 -14 4 -23 -1 -9 -4 -40 -7 -68 -6 -29 1 -53 -2 -53 -6 0 -5 -6
-8 -12 -7 -21 5 -21 -40 0 -51 11 -6 22 -7 26 -4 3 3 6 2 6 -4 0 -5 18 -16 40
-23 22 -7 40 -17 40 -22 0 -4 7 -8 15 -8 8 0 26 -12 40 -27 14 -15 25 -24 25
-20 0 4 18 -10 40 -33 21 -22 45 -40 51 -40 7 0 10 -3 7 -6 -6 -6 27 -44 38
-44 3 0 12 -7 20 -15 9 -8 12 -15 8 -15 -4 0 5 -12 20 -26 14 -15 26 -31 26
-36 0 -5 5 -6 10 -3 6 3 10 1 10 -5 0 -6 20 -31 44 -56 25 -24 42 -44 39 -44
-2 0 2 -7 11 -15 8 -8 19 -15 25 -15 6 0 10 -4 8 -8 -1 -5 15 -26 35 -48 21
-21 37 -43 37 -48 0 -5 11 -16 25 -26 15 -9 23 -20 19 -23 -3 -4 -1 -7 6 -7 7
0 19 -7 27 -15 9 -8 12 -15 7 -15 -4 0 11 -17 34 -39 23 -21 40 -41 36 -45 -3
-3 1 -6 11 -6 9 0 15 -3 13 -7 -6 -11 30 -43 39 -35 4 4 5 2 1 -4 -3 -5 23
-41 59 -78 35 -38 64 -70 64 -72 0 -1 18 -21 40 -43 22 -22 40 -45 40 -51 0
-5 7 -10 17 -10 9 0 13 -3 10 -6 -3 -4 8 -20 24 -35 17 -16 27 -29 23 -29 -5
0 5 -9 21 -20 17 -11 27 -20 22 -20 -4 0 13 -20 37 -45 25 -25 43 -45 39 -45
-3 0 15 -20 40 -45 26 -25 45 -45 43 -45 -2 0 20 -25 50 -56 30 -30 54 -57 54
-59 0 -2 15 -19 33 -38 17 -19 66 -71 107 -117 41 -45 90 -97 108 -116 18 -19
31 -34 28 -34 -2 0 20 -25 50 -56 30 -31 54 -61 54 -65 0 -5 7 -9 16 -9 8 0
13 -4 10 -8 -3 -5 6 -16 19 -26 14 -10 22 -22 19 -27 -3 -5 3 -9 12 -9 10 0
14 -3 11 -6 -3 -4 7 -19 23 -34 17 -16 30 -33 30 -39 0 -6 7 -11 15 -11 8 0
15 -3 15 -8 0 -9 77 -98 138 -159 23 -24 40 -43 37 -43 -3 0 10 -15 30 -34 19
-19 35 -39 35 -45 0 -6 7 -11 15 -11 8 0 15 -6 15 -14 0 -8 7 -17 16 -20 8 -3
12 -10 9 -16 -3 -5 1 -10 9 -10 9 0 16 -3 16 -8 0 -4 29 -39 65 -77 36 -39 65
-76 65 -82 0 -7 6 -13 13 -13 12 0 39 -30 41 -46 1 -4 25 -32 54 -61 28 -30
52 -55 52 -57 0 -2 16 -20 35 -41 19 -21 32 -42 29 -47 -3 -5 -2 -7 3 -6 4 2
19 -5 33 -15 13 -9 20 -17 16 -17 -5 0 3 -10 17 -23 15 -12 27 -28 27 -35 0
-7 8 -12 17 -12 9 0 14 -3 11 -6 -7 -7 39 -54 53 -54 6 0 8 -4 4 -9 -3 -5 4
-12 15 -16 11 -3 20 -12 20 -19 0 -6 14 -20 30 -29 17 -10 30 -26 30 -35 0
-15 2 -15 10 -2 7 10 10 11 10 2 0 -7 16 -28 35 -46 19 -19 35 -32 35 -30 0 2
18 -15 40 -38 22 -24 40 -39 40 -35 0 5 21 -12 46 -37 25 -25 50 -46 55 -46 5
0 9 -5 9 -12 0 -6 3 -9 6 -5 3 3 16 -5 29 -19 12 -13 27 -24 34 -24 6 0 11 -7
11 -16 0 -8 5 -12 10 -9 6 3 10 -2 10 -11 0 -10 3 -15 6 -11 6 6 17 -2 59 -41
13 -12 29 -22 35 -22 6 0 8 -5 4 -12 -4 -6 -3 -8 3 -5 6 4 23 -4 39 -18 15
-13 30 -22 32 -20 2 2 14 -7 26 -19 11 -13 26 -25 31 -26 6 -2 18 -5 27 -8 10
-2 15 -8 12 -13 -3 -5 2 -9 11 -9 9 0 13 -5 10 -10 -4 -6 -3 -10 2 -8 12 3
103 -45 103 -55 0 -4 4 -6 9 -2 5 3 16 -2 24 -10 9 -8 22 -15 29 -15 8 0 24
-9 36 -20 14 -13 22 -16 22 -8 0 10 3 9 9 -1 5 -8 18 -16 28 -17 9 -2 19 -7
21 -13 2 -5 10 -7 18 -4 8 3 14 1 14 -4 0 -6 18 -15 40 -22 22 -7 38 -16 35
-21 -3 -4 4 -6 15 -3 12 3 20 0 20 -7 0 -7 7 -10 15 -6 8 3 15 1 15 -4 0 -6 9
-10 20 -10 11 0 20 -5 20 -12 0 -6 3 -9 6 -6 3 3 29 -2 57 -12 28 -10 55 -16
59 -14 5 3 8 1 8 -4 0 -5 6 -9 13 -10 6 0 23 -3 37 -6 42 -10 84 -18 98 -19 6
0 12 -3 12 -7 0 -7 2 -8 75 -15 28 -2 59 -6 70 -9 11 -2 28 -5 38 -5 12 -1 16
-5 11 -13 -6 -10 -5 -10 7 -1 15 12 48 11 69 -2 6 -3 10 -1 10 5 0 6 5 8 13 3
17 -11 41 -10 50 2 5 7 10 7 15 0 10 -13 42 -15 42 -3 0 7 4 7 13 1 16 -13
107 -14 107 -1 0 7 5 7 13 1 14 -11 27 -11 45 0 6 5 18 5 24 1 16 -10 48 -13
48 -4 0 3 15 7 33 9 41 3 73 8 117 16 19 3 49 8 65 10 46 7 59 10 72 18 6 4
18 4 26 1 8 -3 18 0 22 5 3 6 11 9 16 6 5 -4 9 -1 9 5 0 6 5 8 10 5 6 -3 13 1
16 9 3 9 10 13 15 10 13 -8 10 9 -6 30 -7 10 -18 15 -24 12 -5 -4 -13 -2 -16
4 -4 7 -11 7 -18 2 -13 -10 -24 -11 -117 -11 -92 1 -110 2 -110 9 0 3 -9 6
-20 7 -11 1 -20 -3 -20 -8 0 -6 -5 -7 -11 -3 -6 3 -32 8 -58 10 -47 4 -76 8
-121 18 -14 3 -34 8 -45 10 -55 11 -81 20 -94 30 -12 9 -13 8 -6 -4 6 -12 5
-13 -6 -2 -7 6 -24 12 -37 12 -15 0 -21 4 -16 12 5 8 2 9 -9 5 -10 -3 -17 -2
-17 3 0 5 -7 7 -15 4 -8 -4 -15 -2 -15 3 0 5 -12 10 -27 11 -15 1 -30 7 -34
13 -4 7 -12 8 -18 5 -6 -4 -11 -2 -11 3 0 6 -3 10 -7 9 -5 -1 -19 4 -31 11
-13 7 -26 10 -29 8 -2 -3 -13 2 -24 11 -11 9 -23 18 -27 18 -20 3 -72 29 -72
36 0 4 -5 8 -11 8 -6 0 -29 13 -52 28 -23 15 -54 34 -69 41 -16 8 -28 18 -28
22 0 5 -7 6 -15 3 -10 -4 -15 0 -15 11 0 9 -4 14 -9 10 -5 -3 -16 2 -24 10 -9
8 -20 15 -26 15 -6 0 -11 5 -11 10 0 6 -5 10 -11 10 -6 0 -17 6 -24 13 -34 30
-43 35 -49 30 -3 -4 -6 -1 -6 5 0 6 -9 14 -20 17 -11 3 -20 13 -20 21 0 8 -4
13 -8 10 -5 -3 -25 10 -45 29 -21 19 -42 35 -48 35 -5 0 -7 5 -4 10 3 6 1 10
-5 10 -6 0 -25 13 -43 30 -18 16 -36 30 -40 30 -5 0 -5 5 -2 10 3 6 -1 10 -9
10 -9 0 -21 9 -28 20 -7 11 -17 20 -22 20 -13 0 -75 68 -67 75 3 4 2 6 -4 5
-22 -5 -34 1 -40 19 -4 12 -12 18 -21 14 -8 -3 -14 1 -14 11 0 9 -6 16 -14 16
-8 0 -18 9 -21 20 -3 11 -11 20 -16 20 -16 0 -198 187 -191 196 4 4 1 4 -5 0
-8 -4 -24 4 -40 21 -16 15 -31 27 -35 25 -5 -1 -8 2 -8 7 0 13 -56 71 -70 71
-6 0 -8 5 -5 10 3 6 1 10 -6 10 -7 0 -9 3 -6 6 8 8 -118 134 -134 134 -5 0 -7
5 -4 10 3 6 -2 10 -11 10 -10 0 -15 3 -11 6 3 3 -2 13 -11 23 -9 9 -26 29 -37
44 -11 15 -24 27 -30 27 -6 0 -17 10 -25 21 -8 12 -21 27 -27 35 -7 7 -13 18
-13 25 0 7 -2 10 -5 7 -6 -6 -95 77 -95 88 0 12 -78 84 -90 84 -6 0 -9 4 -6 9
3 5 -1 11 -9 15 -8 3 -15 10 -15 15 0 10 -47 61 -56 61 -8 0 -34 27 -34 35 0
4 -9 18 -20 32 -11 14 -20 22 -20 18 0 -5 -11 5 -25 21 -14 16 -25 35 -25 42
0 6 -5 12 -11 12 -11 0 -78 67 -129 129 -14 17 -31 31 -39 31 -8 0 -11 3 -8 6
4 4 -3 15 -15 25 -11 11 -18 19 -15 19 4 0 -1 8 -10 18 -10 11 -21 17 -25 15
-5 -2 -8 2 -8 10 0 8 -24 36 -52 63 -65 61 -88 90 -80 99 4 4 3 6 -3 5 -18 -4
-38 0 -33 6 6 6 -7 23 -60 76 -15 16 -23 28 -18 28 5 0 -7 13 -27 29 -20 15
-34 31 -30 35 3 3 -1 6 -10 6 -9 0 -17 5 -17 11 0 6 -18 30 -41 53 -22 22 -51
52 -65 66 -13 14 -24 31 -24 38 0 7 -4 10 -10 7 -5 -3 -10 1 -10 9 0 9 -7 16
-15 16 -9 0 -20 11 -25 24 -5 14 -18 30 -30 36 -11 6 -20 18 -20 27 0 9 -3 13
-7 10 -7 -8 -43 21 -43 35 0 5 -16 24 -35 43 -19 19 -32 35 -29 35 2 0 -15 20
-38 44 -24 24 -47 41 -52 38 -5 -3 -6 0 -2 6 4 7 -9 27 -29 46 -19 19 -35 37
-35 39 0 3 -22 29 -50 57 -27 28 -50 56 -50 61 0 6 -4 7 -10 4 -5 -3 -10 1
-10 10 0 11 -5 15 -16 11 -8 -3 -13 -2 -10 3 3 5 -3 19 -14 31 -11 13 -20 28
-20 33 0 6 -3 8 -6 4 -8 -7 -34 17 -34 32 0 6 -11 18 -25 27 -14 9 -22 20 -19
25 3 5 0 8 -6 7 -7 -2 -17 5 -23 16 -17 27 -50 60 -87 86 -17 12 -29 24 -26
27 2 3 -8 18 -24 34 -32 34 -31 74 1 66 11 -3 21 -2 23 2 3 4 24 6 48 6 24 -1
51 2 61 7 12 6 17 5 17 -4 0 -8 3 -9 8 -3 6 9 18 14 47 19 6 1 16 6 24 10 9 6
12 5 7 -2 -3 -6 7 -4 24 4 16 9 43 16 60 16 16 1 27 5 24 10 -5 7 13 12 44 11
6 -1 12 3 12 9 0 5 4 7 9 4 5 -3 14 1 21 9 7 8 16 12 21 9 5 -3 9 0 9 6 0 6 5
8 10 5 6 -3 10 -2 10 3 0 6 12 13 26 16 14 4 35 15 46 26 12 11 24 17 28 15 5
-3 11 2 14 11 3 8 10 13 15 10 5 -3 12 1 15 10 4 9 13 14 21 10 8 -3 14 0 12
7 -1 7 4 11 11 10 6 -2 12 4 12 13 0 8 5 12 10 9 6 -3 10 1 10 9 0 9 5 16 10
16 15 0 140 126 140 141 0 7 3 9 6 6 7 -6 74 75 74 89 0 4 7 14 15 23 46 50
53 60 49 64 -2 2 7 16 20 30 13 14 21 28 18 31 -3 3 1 6 8 6 7 0 10 3 7 7 -4
3 -2 12 4 20 6 7 8 13 5 13 -4 0 -1 7 6 15 29 33 34 41 30 53 -2 6 0 12 5 12
8 0 36 55 38 75 1 6 7 24 13 40 17 41 20 49 18 56 0 3 5 13 11 21 7 8 14 31
15 51 2 20 6 37 9 37 3 0 6 6 7 13 2 22 7 42 16 55 4 7 6 16 3 18 -2 3 0 24 5
47 12 54 15 69 24 142 8 75 9 295 0 316 -4 8 -8 35 -9 60 -1 24 -5 49 -8 54
-4 6 -5 18 -4 28 2 9 0 17 -3 17 -4 0 -8 13 -9 28 -1 16 -9 48 -17 73 -9 24
-16 52 -16 62 0 9 -4 17 -10 17 -5 0 -10 9 -10 19 0 11 -5 23 -10 26 -6 4 -8
10 -5 15 3 5 0 12 -6 15 -5 4 -8 13 -5 20 3 8 0 15 -5 17 -5 2 -11 13 -12 26
0 12 -4 22 -8 22 -6 0 -26 38 -27 53 0 5 -10 17 -21 26 -12 10 -21 21 -21 25
0 9 -43 70 -52 74 -5 2 -8 8 -8 14 0 6 -13 24 -30 40 -16 15 -30 33 -30 38 0
6 -5 10 -10 10 -13 0 -90 79 -90 92 0 4 -6 8 -13 8 -7 0 -19 9 -27 20 -8 11
-18 20 -23 20 -8 0 -23 11 -58 43 -10 9 -23 17 -29 17 -5 0 -10 5 -10 11 0 5
-4 8 -9 5 -5 -3 -14 1 -21 9 -7 8 -19 15 -26 15 -8 0 -14 4 -14 8 0 5 -16 14
-35 22 -19 8 -35 17 -35 22 0 4 -9 8 -19 8 -11 0 -26 6 -33 13 -12 11 -22 15
-53 21 -30 6 -55 19 -55 27 0 6 -5 7 -10 4 -6 -4 -17 -1 -25 5 -8 7 -15 10
-15 6 0 -3 -16 0 -35 9 -25 10 -34 11 -28 2 5 -9 3 -9 -8 -1 -8 6 -43 17 -79
24 -36 7 -69 16 -75 20 -5 5 -28 8 -51 7 -22 0 -45 3 -52 7 -7 4 -12 3 -12 -2
0 -6 -14 -7 -35 -2 -20 4 -44 7 -53 5 -9 -1 -21 0 -27 3 -5 3 -483 6 -1063 6
-945 1 -1057 -1 -1078 -15z"/>
</g>
</svg>
