<?xml version="1.0" standalone="no"?>
<!DOCTYPE svg PUBLIC "-//W3C//DTD SVG 20010904//EN"
 "http://www.w3.org/TR/2001/REC-SVG-20010904/DTD/svg10.dtd">
<svg version="1.0" xmlns="http://www.w3.org/2000/svg"
 width="512.000000pt" height="512.000000pt" viewBox="0 0 512.000000 512.000000"
 preserveAspectRatio="xMidYMid meet">
<metadata>
Created by potrace 1.11, written by Peter Selinger 2001-2013
</metadata>
<g transform="translate(0.000000,512.000000) scale(0.100000,-0.100000)"
fill="#000000" stroke="none">
<path d="M2375 4282 c-25 -14 -59 -17 -195 -18 -385 -1 -673 -14 -745 -34 -38
-10 -95 -23 -125 -29 -122 -24 -278 -75 -323 -104 -15 -9 -33 -17 -41 -17 -22
0 -124 -87 -142 -121 -21 -41 -11 -63 53 -125 60 -59 46 -56 241 -54 81 1 103
-2 108 -13 3 -8 -14 -53 -38 -98 -24 -46 -52 -104 -62 -129 -11 -25 -35 -78
-53 -118 -18 -40 -33 -77 -33 -82 0 -5 -5 -21 -12 -37 -6 -15 -23 -62 -37
-103 -19 -54 -33 -78 -50 -86 -35 -18 -45 -40 -31 -73 11 -28 6 -63 -33 -201
-16 -59 -21 -66 -55 -73 -31 -6 -52 -41 -52 -86 0 -16 -9 -36 -22 -47 -26 -23
-105 -74 -113 -74 -4 0 -31 -12 -61 -26 -57 -27 -80 -59 -70 -97 6 -26 -13
-76 -34 -87 -22 -12 -50 -91 -50 -142 0 -46 28 -78 69 -78 32 0 44 -11 58 -55
5 -17 18 -32 29 -34 35 -6 46 -23 39 -60 -11 -63 -89 -386 -121 -497 -8 -28
-14 -63 -14 -78 0 -15 -7 -43 -15 -63 -8 -19 -15 -50 -15 -67 -1 -17 -7 -49
-15 -71 -8 -22 -18 -72 -21 -111 -7 -70 -6 -72 36 -145 42 -71 56 -89 73 -89
14 0 87 125 167 286 44 89 80 166 80 171 0 4 8 24 18 43 10 19 36 80 57 135
48 123 68 155 101 155 35 0 51 43 28 77 -20 32 -15 62 38 200 22 59 49 130 59
156 25 69 37 80 73 72 78 -16 81 -15 86 42 6 63 32 87 105 98 27 4 60 15 73
26 14 10 39 19 56 19 17 1 49 8 71 16 22 9 69 22 105 29 36 8 77 18 92 24 15
6 69 13 120 17 51 4 109 13 128 21 59 25 243 64 385 83 50 6 101 14 115 18 30
9 39 41 15 55 -13 7 -15 17 -10 43 7 42 -9 74 -38 74 -12 0 -29 4 -36 9 -9 6
-22 6 -32 0 -22 -12 -206 8 -269 28 -35 12 -123 16 -400 20 -195 3 -359 8
-363 13 -5 4 -1 32 8 61 66 222 133 467 160 589 9 41 23 103 32 137 16 66 12
113 -11 113 -26 0 -40 28 -28 55 10 22 18 25 64 25 93 0 271 20 318 36 25 9
79 18 120 21 41 3 80 9 85 14 16 12 273 35 353 30 27 -1 30 -36 4 -67 -25 -31
-78 -54 -91 -41 -6 6 -30 12 -53 12 -38 1 -44 -3 -71 -41 -16 -24 -40 -45 -53
-48 -34 -9 -42 -46 -14 -68 12 -10 30 -18 39 -18 29 0 90 53 102 88 13 39 29
48 58 32 26 -14 27 -51 2 -74 -30 -27 -35 -62 -12 -85 11 -11 19 -33 19 -54 0
-19 5 -44 12 -56 22 -42 -5 -70 -67 -71 -16 0 -21 -4 -16 -16 5 -13 17 -15 62
-11 65 6 149 20 206 35 22 6 76 18 120 27 44 9 105 26 134 38 72 27 134 29
139 4 2 -11 -10 -51 -26 -90 -30 -71 -62 -153 -106 -272 -37 -100 -47 -128
-57 -165 -6 -19 -14 -44 -19 -55 -4 -11 -18 -54 -30 -95 -12 -41 -26 -86 -31
-100 -5 -14 -20 -70 -34 -125 -41 -163 -50 -175 -130 -175 -19 0 -49 -6 -67
-14 -18 -8 -50 -18 -71 -21 -26 -4 -41 -13 -47 -28 -6 -12 -28 -51 -51 -87
-34 -54 -39 -70 -34 -98 4 -24 2 -39 -10 -52 -19 -21 -14 -46 16 -81 13 -15
18 -31 14 -44 -3 -11 -8 -35 -12 -52 -5 -31 -4 -33 24 -33 16 0 44 -11 63 -25
19 -14 42 -25 51 -25 38 0 51 -29 44 -99 -3 -36 -12 -88 -19 -116 -47 -172
-50 -200 -32 -259 14 -43 16 -72 11 -129 l-7 -74 34 -27 c38 -28 69 -33 86
-13 11 13 35 75 54 137 5 19 14 40 18 45 4 6 13 26 18 45 6 19 20 60 32 90 11
30 27 71 34 90 44 117 80 197 93 207 12 10 23 8 54 -7 21 -11 46 -20 56 -20
10 0 32 -9 48 -20 17 -11 43 -20 58 -20 16 0 49 -9 75 -20 26 -10 76 -24 112
-30 35 -7 72 -16 81 -20 9 -5 76 -16 150 -25 100 -11 149 -12 194 -5 33 5 248
10 478 10 l418 0 22 24 c34 38 67 83 67 93 -1 11 -99 77 -106 70 -5 -4 -71 18
-234 79 -36 14 -78 29 -95 34 -16 6 -49 19 -72 30 -24 11 -51 20 -61 20 -10 0
-27 7 -38 14 -12 8 -43 20 -70 27 -27 6 -58 17 -69 24 -11 7 -42 19 -70 28
-27 8 -75 25 -105 37 -72 28 -154 58 -210 76 -64 22 -150 53 -187 70 -66 28
-49 43 180 159 237 119 298 152 385 208 24 15 54 32 68 37 13 5 27 16 30 23 6
17 129 117 142 117 5 0 30 19 55 43 25 23 70 62 99 87 162 139 300 291 355
393 37 71 38 73 36 172 -2 55 2 127 8 160 22 121 -28 272 -124 373 -48 51
-113 104 -151 123 -17 9 -53 28 -81 43 -56 31 -217 93 -300 116 -190 53 -187
53 -336 52 -81 -1 -175 -6 -210 -12 -35 -6 -104 -17 -154 -24 -92 -13 -172
-34 -260 -67 -45 -17 -54 -17 -90 -5 -22 8 -82 19 -133 25 -52 7 -121 18 -155
26 -34 8 -73 15 -86 15 -13 0 -34 11 -47 25 -27 29 -65 32 -109 7z m1696 -667
c48 -25 51 -29 45 -56 -16 -82 -46 -123 -169 -230 -185 -162 -257 -223 -446
-379 -96 -78 -182 -150 -191 -159 -10 -9 -30 -25 -44 -36 -15 -11 -34 -27 -44
-36 -9 -8 -33 -28 -53 -42 -64 -48 -65 -16 -5 148 55 146 104 290 115 330 5
17 13 41 19 55 6 14 20 61 32 105 12 44 28 98 36 120 18 52 18 86 -1 111 -26
34 -19 54 19 54 19 0 68 7 108 16 97 21 277 33 415 29 97 -4 119 -8 164 -30z"/>
<path d="M966 3725 c-19 -19 -22 -95 -4 -113 18 -18 53 -15 72 7 12 14 16 32
14 67 -3 47 -4 49 -34 52 -19 2 -38 -3 -48 -13z"/>
<path d="M1910 3405 c0 -8 5 -15 10 -15 6 0 10 7 10 15 0 8 -4 15 -10 15 -5 0
-10 -7 -10 -15z"/>
<path d="M2098 3320 c-14 -11 -33 -20 -42 -20 -8 0 -20 -9 -26 -20 -10 -19 -8
-20 48 -20 45 0 63 4 76 19 40 45 -8 80 -56 41z"/>
<path d="M2438 3283 c7 -3 16 -2 19 1 4 3 -2 6 -13 5 -11 0 -14 -3 -6 -6z"/>
<path d="M1480 3060 c0 -13 5 -20 13 -17 6 2 12 10 12 17 0 7 -6 15 -12 18 -8
2 -13 -5 -13 -18z"/>
<path d="M3647 2303 c-12 -11 -8 -40 7 -52 12 -10 17 -8 26 9 16 29 -12 65
-33 43z"/>
<path d="M4102 1454 c4 -21 22 -23 26 -1 2 10 -3 17 -13 17 -10 0 -15 -6 -13
-16z"/>
</g>
</svg>
