<?xml version="1.0" standalone="no"?>
<!DOCTYPE svg PUBLIC "-//W3C//DTD SVG 20010904//EN"
 "http://www.w3.org/TR/2001/REC-SVG-20010904/DTD/svg10.dtd">
<svg version="1.0" xmlns="http://www.w3.org/2000/svg"
 width="1280.000000pt" height="1280.000000pt" viewBox="0 0 1280.000000 1280.000000"
 preserveAspectRatio="xMidYMid meet">
<metadata>
Created by potrace 1.11, written by Peter Selinger 2001-2013
</metadata>
<g transform="translate(0.000000,1280.000000) scale(0.100000,-0.100000)"
fill="#000000" stroke="none">
<path d="M4825 10379 c-4 -6 -13 -8 -21 -5 -8 3 -14 2 -14 -3 0 -5 -10 -7 -22
-7 -13 1 -34 -3 -48 -9 -14 -7 -37 -11 -52 -10 -15 1 -25 -2 -23 -6 3 -4 -9
-6 -27 -5 -18 2 -44 -1 -58 -6 -30 -12 -50 -16 -115 -22 -56 -6 -103 -14 -125
-22 -8 -3 -51 -7 -95 -10 -44 -2 -91 -6 -105 -9 -13 -2 -42 -8 -65 -11 -22 -4
-722 -7 -1556 -8 -1333 -1 -1517 -3 -1530 -16 -17 -18 -17 -28 -2 -56 12 -20
39 -25 145 -28 21 -1 38 -3 38 -7 0 -3 17 -4 39 -3 21 1 56 -5 77 -12 22 -8
48 -14 58 -14 11 0 16 -3 13 -7 -4 -3 10 -14 31 -23 21 -10 51 -30 65 -44 15
-15 27 -24 27 -20 0 4 12 -5 26 -20 15 -14 31 -26 35 -26 5 0 9 -7 9 -15 0 -8
4 -15 9 -15 9 0 81 -102 98 -140 25 -57 35 -90 30 -104 -3 -8 -3 -17 1 -20 8
-9 15 -44 16 -83 1 -18 3 -33 6 -33 8 0 3 -5362 -5 -5390 -4 -14 -8 -36 -10
-50 -9 -60 -16 -90 -23 -90 -4 0 -9 -12 -10 -26 -1 -15 -10 -33 -20 -40 -9 -7
-13 -14 -9 -14 4 0 -5 -19 -21 -42 -28 -40 -40 -56 -83 -105 -26 -29 -102 -88
-111 -85 -4 1 -8 -3 -8 -9 0 -5 -4 -8 -9 -5 -5 3 -12 -1 -15 -10 -4 -9 -9 -14
-13 -10 -3 3 -13 0 -22 -8 -9 -8 -32 -17 -52 -20 -20 -3 -47 -9 -60 -14 -13
-5 -43 -10 -66 -10 -24 0 -46 -1 -50 -3 -7 -2 -45 -4 -115 -8 -33 -1 -48 -36
-24 -59 17 -17 124 -33 132 -20 3 4 16 3 29 -2 16 -6 27 -6 31 1 3 6 10 6 17
1 7 -5 23 -6 37 -3 13 4 46 4 73 1 26 -4 50 -3 53 1 3 5 16 4 29 -1 16 -6 27
-6 31 1 3 6 10 6 17 1 7 -5 23 -6 37 -3 13 4 46 4 73 1 26 -4 50 -3 53 1 3 5
16 4 29 -1 16 -6 27 -6 31 1 3 6 10 6 17 1 7 -5 23 -6 37 -3 13 4 46 4 73 1
26 -4 50 -4 52 -1 1 3 110 4 240 1 130 -3 239 -2 241 2 3 4 16 3 29 -2 16 -6
27 -6 31 1 3 6 10 6 17 1 7 -5 23 -6 37 -3 13 4 46 4 73 1 26 -4 50 -3 53 1 3
5 16 4 29 -1 16 -6 27 -6 31 1 3 6 10 6 17 1 7 -5 23 -6 37 -3 13 4 46 4 72 1
27 -4 50 -4 53 -2 2 2 54 4 114 3 61 -1 119 3 129 8 27 14 32 33 16 55 -11 15
-31 19 -111 23 -103 4 -118 6 -144 17 -9 4 -20 6 -25 5 -5 -1 -11 -1 -14 1 -3
1 -16 4 -29 6 -14 2 -32 11 -41 19 -9 8 -24 15 -33 15 -9 0 -17 5 -17 10 0 6
-5 10 -11 10 -16 0 -122 84 -144 115 -11 15 -32 41 -47 58 -15 18 -28 38 -28
45 0 6 -4 12 -10 12 -5 0 -10 9 -10 20 0 11 -5 20 -11 20 -5 0 -8 4 -4 9 3 5
1 12 -5 16 -5 3 -10 17 -10 31 0 13 -5 24 -11 24 -5 0 -7 5 -4 10 3 6 3 16 -2
23 -11 18 -11 57 0 57 5 0 3 7 -4 16 -11 14 -14 227 -15 1258 0 682 3 1248 8
1258 7 15 42 16 372 16 200 0 369 3 375 6 6 4 11 3 11 -1 0 -5 11 -9 25 -9 14
0 25 4 25 9 0 6 5 6 13 0 13 -9 136 -9 161 0 9 4 16 3 16 -1 0 -5 11 -8 25 -8
14 0 25 4 25 9 0 4 5 5 11 2 6 -4 160 -8 342 -9 258 -2 342 -5 375 -17 23 -7
42 -18 42 -22 0 -5 4 -6 9 -2 5 3 16 -2 24 -10 9 -8 19 -15 24 -15 13 0 118
-103 121 -120 2 -8 7 -17 11 -20 10 -6 53 -90 46 -90 -2 0 0 -12 6 -27 16 -42
20 -70 24 -158 4 -106 10 -124 42 -120 29 3 45 22 39 48 -2 9 0 17 5 17 5 0 4
11 -1 26 -6 15 -6 23 -1 19 6 -3 6 6 1 25 -5 19 -5 30 1 30 6 0 5 8 -1 20 -6
11 -7 20 -3 20 4 0 8 11 8 25 0 14 -2 25 -5 25 -7 0 -4 66 5 79 3 6 1 11 -5
11 -8 0 -8 6 0 20 8 14 8 20 0 20 -8 0 -8 6 0 20 8 14 8 20 0 20 -8 0 -8 6 0
20 8 14 8 20 0 20 -8 0 -8 6 0 20 8 14 8 20 0 20 -8 0 -8 6 0 20 8 14 8 20 0
20 -8 0 -8 6 0 20 8 14 8 20 0 20 -8 0 -8 6 0 20 8 14 8 20 0 20 -8 0 -8 6 0
20 8 14 8 20 0 20 -8 0 -8 6 0 20 8 14 8 20 0 20 -8 0 -8 6 0 20 8 14 8 20 0
20 -8 0 -8 6 0 20 8 14 8 20 0 20 -8 0 -8 6 0 20 8 14 8 20 0 20 -8 0 -8 6 0
20 8 14 8 20 0 20 -8 0 -8 6 0 20 8 14 8 20 0 20 -6 0 -8 5 -4 11 10 17 11 60
2 87 -4 12 -3 22 2 22 6 0 6 10 0 26 -6 14 -6 23 -1 20 4 -3 5 12 1 34 -4 22
-4 40 1 40 5 0 4 12 -1 26 -6 14 -7 23 -2 21 9 -6 8 45 -2 61 -3 6 -2 13 4 17
7 4 7 12 0 24 -5 10 -6 21 -3 25 9 9 9 65 1 59 -5 -2 -4 7 2 21 6 18 6 26 -1
26 -6 0 -7 5 -4 10 8 14 -21 60 -38 60 -25 0 -42 -35 -42 -85 0 -67 -14 -188
-23 -195 -4 -3 -8 -12 -8 -20 -1 -27 -16 -55 -51 -94 -7 -8 -10 -16 -8 -18 5
-5 -68 -83 -103 -110 -12 -10 -22 -14 -22 -10 0 4 -4 2 -8 -4 -9 -12 -69 -41
-97 -46 -11 -1 -23 -7 -27 -13 -4 -6 -75 -10 -178 -10 -93 0 -170 -4 -170 -8
0 -4 -9 -3 -20 3 -11 6 -20 7 -20 3 0 -4 -45 -6 -100 -3 -55 3 -100 1 -100 -3
0 -4 -9 -3 -20 3 -11 6 -20 7 -20 3 0 -4 -45 -6 -100 -3 -55 3 -100 1 -100 -3
0 -4 -9 -3 -20 3 -11 6 -20 7 -20 3 0 -4 -45 -6 -100 -3 -55 3 -100 1 -100 -3
0 -4 -9 -3 -20 3 -11 6 -20 7 -20 3 0 -4 -45 -6 -100 -3 -55 3 -100 1 -100 -3
0 -4 -9 -3 -20 3 -11 6 -20 7 -20 3 0 -4 -63 -6 -140 -3 -77 3 -140 1 -140 -3
0 -4 -9 -3 -20 3 -11 6 -20 7 -20 2 0 -16 -68 0 -72 16 -7 29 -3 2940 4 2947
8 9 948 12 948 3 0 -4 7 -5 15 -2 22 9 145 10 145 2 0 -4 6 -5 14 -2 23 9 786
10 786 1 0 -5 5 -5 11 -2 9 6 135 9 149 4 3 -1 14 -3 25 -4 68 -10 100 -18
103 -26 2 -5 12 -9 21 -9 10 0 30 -9 45 -21 14 -11 26 -18 26 -15 0 6 30 -18
82 -66 17 -16 27 -28 24 -28 -4 0 3 -10 14 -22 11 -13 23 -33 26 -45 4 -13 11
-23 17 -23 6 0 7 -3 4 -7 -4 -3 -2 -11 3 -18 5 -6 12 -29 16 -51 8 -49 12 -69
14 -69 1 0 4 -40 7 -90 3 -77 7 -93 26 -108 13 -12 23 -15 25 -8 2 6 7 9 12 6
5 -3 12 5 16 17 9 30 11 983 2 1009 -8 21 -52 27 -63 8z"/>
<path d="M6158 10228 c-18 -10 -26 -18 -18 -18 12 0 12 -2 2 -8 -10 -7 -8 -13
5 -28 18 -20 40 -25 131 -27 28 -1 52 -4 52 -7 0 -3 27 -6 61 -7 42 -1 67 -7
80 -19 11 -10 19 -12 19 -5 0 6 17 0 40 -14 22 -14 42 -25 45 -25 5 0 47 -34
79 -65 12 -12 30 -24 40 -28 10 -4 16 -10 12 -14 -3 -4 6 -15 21 -25 16 -10
24 -18 20 -18 -5 0 3 -14 17 -31 14 -17 26 -35 26 -41 0 -6 6 -19 13 -27 23
-27 50 -107 65 -191 8 -48 7 -5446 -1 -5490 -18 -93 -40 -155 -62 -180 -7 -8
-14 -18 -14 -23 -3 -43 -179 -227 -218 -227 -7 0 -13 -4 -13 -10 0 -5 -6 -10
-14 -10 -8 0 -21 -6 -28 -12 -14 -13 -28 -18 -64 -22 -11 -2 -26 -6 -32 -10
-16 -10 -76 -17 -176 -20 -72 -2 -91 -6 -102 -21 -10 -14 -11 -22 -3 -32 6 -7
8 -13 3 -13 -5 0 2 -6 16 -14 15 -8 30 -9 37 -4 6 5 14 5 17 -1 3 -5 18 -6 33
-2 14 4 48 4 75 1 27 -4 51 -3 54 1 3 5 16 4 29 -1 16 -6 27 -6 31 1 3 6 10 6
17 1 7 -5 23 -6 37 -3 13 4 46 4 73 1 26 -4 50 -4 52 -1 1 3 110 4 240 1 130
-3 239 -2 241 2 3 4 16 3 29 -2 16 -6 27 -6 31 1 3 6 10 6 17 1 7 -5 23 -6 37
-3 13 4 46 4 73 1 26 -4 50 -3 53 1 3 5 16 4 29 -1 16 -6 27 -6 31 1 3 6 10 6
17 1 7 -5 23 -6 37 -3 13 4 46 4 72 1 27 -4 50 -4 53 -2 6 6 214 4 225 -3 5
-3 11 -1 15 5 4 7 12 7 26 0 10 -6 19 -7 19 -2 0 4 9 8 20 8 11 0 20 -4 20 -7
0 -4 12 -4 28 0 15 5 36 5 47 1 11 -4 28 -4 38 -1 11 4 41 4 68 1 28 -4 52 -3
55 2 3 5 10 6 15 2 18 -11 57 5 64 26 12 38 -9 54 -72 56 -117 3 -174 8 -179
16 -3 4 -16 8 -30 8 -14 0 -41 7 -62 17 -20 9 -41 15 -45 14 -4 0 -10 6 -13
14 -4 8 -15 15 -25 15 -11 0 -22 7 -25 15 -4 8 -11 15 -18 15 -15 0 -106 84
-106 98 0 7 -7 12 -15 12 -8 0 -15 5 -15 10 0 6 -9 20 -20 32 -11 12 -20 28
-20 35 0 7 -4 13 -10 13 -5 0 -10 9 -10 19 0 11 -4 21 -9 23 -6 2 -11 14 -13
28 -2 14 -9 35 -16 48 -7 12 -11 22 -8 22 3 0 1 14 -4 30 -5 19 -5 30 1 30 6
0 7 5 2 13 -13 19 -12 5769 1 5787 9 12 35 15 124 15 61 0 112 -3 112 -7 0 -4
7 -5 15 -2 22 9 145 10 145 2 0 -4 7 -5 15 -2 26 10 165 9 165 -1 0 -6 4 -5 8
1 5 8 75 11 242 8 234 -4 280 -6 395 -19 33 -4 83 -8 110 -10 60 -5 176 -33
189 -46 6 -5 19 -9 31 -9 12 0 27 -6 34 -12 11 -11 12 -10 6 1 -5 9 4 6 22 -7
17 -12 35 -22 40 -22 15 0 63 -25 63 -32 0 -5 7 -8 15 -8 8 0 15 -5 15 -11 0
-5 4 -8 9 -5 4 3 19 -3 31 -14 13 -11 27 -20 31 -20 4 0 20 -11 34 -25 14 -14
25 -23 25 -21 0 3 40 -33 88 -82 88 -87 142 -152 142 -170 0 -6 4 -12 8 -14
14 -6 52 -66 52 -82 0 -9 4 -16 8 -16 8 0 36 -51 32 -59 -1 -2 3 -7 10 -11 6
-4 12 -17 13 -28 1 -12 4 -22 7 -22 4 0 13 -22 20 -50 7 -27 17 -50 21 -50 3
0 10 -19 14 -42 4 -24 9 -47 11 -53 2 -5 8 -32 14 -59 5 -27 15 -55 21 -62 9
-11 8 -14 -1 -14 -8 0 -9 -4 -3 -12 5 -7 10 -31 11 -53 2 -22 7 -61 13 -88 6
-26 9 -53 6 -61 -3 -8 -3 -17 0 -20 3 -3 5 -37 5 -76 0 -39 4 -70 9 -70 6 0 7
-5 4 -10 -11 -18 -11 -120 0 -120 7 0 7 -3 0 -8 -13 -9 -16 -42 -3 -42 5 0 6
-6 1 -12 -4 -7 -8 -31 -10 -53 -2 -46 -8 -102 -18 -160 -3 -22 -8 -58 -10 -80
-2 -22 -4 -40 -5 -40 -2 0 -8 -22 -18 -70 -5 -22 -14 -51 -20 -65 -12 -30 -24
-61 -28 -75 -6 -26 -67 -151 -76 -156 -5 -3 -9 -10 -9 -15 1 -18 -11 -44 -20
-44 -6 0 -7 -4 -4 -10 3 -5 -3 -17 -15 -27 -11 -10 -20 -22 -20 -28 0 -6 -9
-21 -20 -33 -12 -12 -18 -22 -14 -22 4 0 -5 -9 -20 -21 -14 -11 -25 -24 -23
-27 5 -10 -40 -51 -47 -44 -3 3 -6 1 -6 -4 0 -17 -118 -124 -128 -116 -2 2
-14 -8 -27 -23 -14 -14 -28 -26 -32 -27 -5 -1 -30 -15 -58 -32 -27 -17 -52
-31 -55 -31 -3 0 -12 -6 -22 -14 -16 -14 -35 -22 -138 -59 -97 -35 -154 -51
-200 -57 -24 -4 -49 -10 -55 -13 -12 -8 -28 -11 -75 -15 -19 -1 -40 -6 -46 -9
-10 -7 -158 -20 -251 -22 -24 -1 -43 -5 -43 -9 0 -4 -28 -8 -62 -7 -35 0 -145
-1 -246 -2 -100 -2 -182 0 -182 4 0 4 -14 1 -32 -6 -38 -16 -45 -51 -14 -71
12 -8 44 -16 71 -18 28 -2 59 -7 70 -11 34 -13 49 -18 75 -22 13 -3 30 -10 37
-16 7 -6 13 -8 13 -5 0 6 62 -32 87 -53 7 -5 16 -10 20 -10 16 -1 78 -57 202
-182 142 -142 194 -198 186 -198 -5 0 22 -32 77 -92 15 -16 30 -38 33 -49 4
-10 11 -19 16 -19 5 0 9 -7 9 -16 0 -8 5 -12 10 -9 6 3 10 0 10 -8 0 -7 8 -22
18 -33 10 -10 21 -27 25 -36 3 -10 11 -18 17 -18 6 0 9 -4 6 -8 -3 -5 6 -20
19 -34 13 -14 21 -29 18 -32 -4 -3 -1 -6 5 -6 7 0 12 -4 12 -10 0 -9 19 -36
48 -66 7 -8 11 -14 7 -14 -6 0 7 -18 45 -58 13 -15 22 -27 20 -27 -4 0 31 -57
41 -65 3 -3 14 -20 24 -37 11 -18 23 -33 27 -33 4 0 8 -5 8 -11 0 -6 6 -17 13
-24 28 -32 37 -45 37 -52 0 -7 71 -107 100 -140 5 -7 10 -17 10 -23 0 -5 4
-10 8 -10 5 0 19 -19 32 -42 13 -24 31 -50 39 -58 9 -8 17 -21 19 -29 2 -8 12
-22 23 -31 10 -10 25 -32 33 -51 9 -19 15 -30 16 -25 0 10 70 -93 70 -104 0
-4 7 -11 16 -14 9 -4 14 -9 11 -12 -2 -3 6 -17 19 -31 13 -14 22 -28 20 -30
-2 -2 9 -18 25 -36 16 -17 29 -37 29 -44 0 -7 3 -13 8 -13 4 0 20 -20 35 -45
16 -25 33 -45 39 -45 5 0 6 -4 3 -10 -3 -5 -1 -10 4 -10 6 0 11 -4 11 -10 0
-5 26 -45 58 -89 31 -43 64 -89 72 -101 14 -21 36 -49 60 -77 5 -7 10 -17 10
-23 0 -5 5 -10 10 -10 6 0 10 -5 10 -11 0 -7 10 -20 22 -30 11 -11 18 -19 14
-19 -4 0 12 -20 36 -46 79 -83 280 -284 285 -284 3 0 19 -15 37 -33 17 -17 45
-41 60 -52 16 -11 37 -27 46 -35 24 -22 78 -60 85 -60 4 0 13 -6 20 -12 35
-32 50 -43 55 -42 13 2 40 -9 40 -17 0 -5 5 -9 11 -9 6 0 23 -9 39 -20 15 -11
29 -17 32 -14 3 2 11 -2 18 -11 7 -8 18 -15 26 -15 7 0 39 -14 71 -31 32 -17
69 -33 83 -35 13 -3 30 -10 37 -16 7 -6 13 -7 13 -3 0 4 7 2 15 -5 8 -7 15 -9
15 -5 0 4 10 1 23 -7 12 -8 36 -18 52 -21 26 -4 67 -13 100 -21 34 -9 85 -17
115 -19 19 -2 41 -6 48 -11 7 -4 77 -10 155 -12 78 -3 147 -6 154 -9 7 -2 14
-1 17 4 3 4 30 4 61 1 31 -3 59 -2 61 2 3 5 11 5 18 -1 6 -6 18 -6 25 -2 13 8
71 4 80 -5 2 -2 10 1 17 7 8 6 14 6 18 0 4 -6 18 -6 35 -1 15 4 34 4 42 -1 7
-4 19 -4 25 2 8 6 14 7 18 0 4 -6 18 -6 36 -1 17 5 30 6 30 4 0 -16 26 25 27
42 2 30 -39 46 -120 46 -37 0 -89 6 -115 12 -26 7 -59 12 -74 12 -16 -1 -28 2
-28 6 0 4 -8 8 -18 8 -10 0 -22 3 -26 8 -8 8 -14 9 -52 11 -14 0 -22 5 -19 11
3 6 -3 10 -14 10 -27 0 -131 48 -131 60 0 6 -3 9 -7 8 -23 -6 -196 95 -215
125 -4 7 -8 9 -8 5 0 -8 -27 12 -62 44 -10 10 -20 18 -23 18 -3 0 -22 15 -43
34 -90 84 -105 96 -113 96 -5 0 -9 7 -9 15 0 8 -4 15 -9 15 -4 0 -35 27 -67
61 -32 33 -83 85 -113 115 -30 30 -51 54 -47 54 4 0 -5 11 -20 25 -15 14 -31
25 -36 25 -5 0 -7 4 -3 9 3 5 -6 18 -20 29 -14 11 -25 24 -25 29 0 5 -9 15
-20 23 -11 8 -20 20 -20 28 0 7 -4 11 -9 7 -5 -3 -12 4 -16 15 -3 11 -11 20
-16 20 -6 0 -7 5 -4 10 3 6 -2 10 -11 10 -10 0 -15 3 -12 6 3 3 -4 16 -16 29
-11 13 -32 38 -46 55 -14 18 -29 38 -35 44 -5 6 -22 29 -37 51 -15 22 -41 55
-57 73 -16 17 -28 32 -25 32 3 0 -1 6 -8 14 -7 7 -20 23 -28 36 -8 12 -26 35
-40 52 -14 17 -23 31 -20 32 3 1 -10 16 -27 34 -18 17 -33 36 -33 42 0 5 -4
10 -10 10 -5 0 -10 7 -10 15 0 8 -9 20 -20 27 -11 7 -20 18 -20 25 0 7 -4 13
-10 13 -5 0 -10 4 -10 10 0 10 -20 37 -52 72 -10 10 -18 21 -18 26 0 4 -13 21
-30 38 -16 18 -26 34 -23 38 3 3 -2 8 -11 12 -9 3 -16 10 -16 16 0 11 -51 81
-62 86 -5 2 -8 10 -8 18 0 8 -4 14 -10 14 -5 0 -10 5 -10 11 0 7 -10 20 -22
30 -11 11 -18 19 -14 19 4 0 -7 19 -26 42 -18 23 -37 49 -43 59 -23 38 -72
106 -92 129 -13 14 -30 40 -39 58 -8 18 -22 36 -30 39 -8 3 -11 9 -8 14 3 6
-6 19 -20 30 -14 11 -26 24 -26 29 0 8 -25 41 -62 81 -10 10 -18 23 -18 27 0
4 -9 14 -20 22 -11 8 -20 18 -20 22 0 11 -38 48 -49 48 -5 0 -12 8 -15 18 -3
9 -40 53 -81 97 -41 43 -75 83 -75 87 0 4 -3 7 -7 6 -5 -2 -33 22 -63 53 -54
55 -180 147 -180 132 0 -4 -6 3 -13 17 -18 34 -2 43 83 46 63 3 88 6 140 19
14 4 36 8 50 9 14 1 34 6 45 10 46 18 71 26 90 29 11 2 36 10 56 19 20 9 45
19 57 22 12 4 22 12 22 17 0 6 4 8 9 4 5 -3 12 -1 16 5 4 6 10 8 15 5 5 -3 12
0 15 5 4 6 17 16 28 21 34 14 94 52 119 74 13 10 25 18 28 17 3 -1 25 15 50
35 25 21 50 41 55 45 48 36 134 117 151 143 9 14 23 25 30 25 8 0 14 5 14 10
0 6 13 25 29 43 16 17 30 36 29 41 0 5 4 12 9 15 5 3 32 36 59 72 69 94 79
109 79 119 0 5 8 19 19 31 10 12 25 36 33 53 23 48 49 94 64 113 11 13 11 15
1 9 -11 -7 -11 -4 0 15 7 13 16 26 19 29 5 5 19 49 20 67 0 5 7 11 14 16 8 4
12 14 9 22 -4 8 -2 15 3 15 5 0 9 8 10 18 1 9 7 31 14 47 7 17 11 36 10 43 -1
6 3 12 9 12 6 0 8 5 5 10 -4 6 -1 18 7 27 7 9 11 18 10 20 -6 6 9 83 16 83 4
0 7 19 6 43 0 23 2 46 5 52 2 5 6 23 7 40 1 16 2 30 3 30 16 0 21 396 6 450
-6 22 -11 52 -10 68 0 15 -2 27 -6 27 -3 0 -5 15 -4 33 1 17 -4 47 -12 66 -7
18 -11 37 -8 41 3 5 1 11 -3 14 -5 3 -9 16 -8 28 1 13 -4 36 -11 51 -8 15 -11
32 -8 37 3 6 1 10 -4 10 -6 0 -11 10 -11 23 0 12 -7 31 -15 41 -8 10 -12 23
-9 27 2 5 -4 26 -15 47 -11 22 -18 42 -15 44 2 3 -2 11 -11 18 -8 7 -15 19
-15 26 0 8 -11 32 -24 53 -14 21 -22 42 -19 45 4 3 1 6 -5 6 -7 0 -12 9 -12
20 0 11 -4 20 -10 20 -5 0 -10 6 -10 14 0 7 -7 19 -16 26 -8 8 -21 28 -29 47
-8 18 -19 33 -24 33 -6 0 -11 5 -11 11 0 13 -43 67 -106 136 -22 23 -50 55
-64 70 -26 29 -32 33 -51 33 -5 0 -7 5 -4 10 3 6 3 10 -2 10 -4 0 -26 17 -49
38 -22 20 -57 46 -77 57 -20 11 -37 23 -37 27 0 5 -7 8 -15 8 -8 0 -15 4 -15
9 0 5 -13 14 -30 20 -16 5 -30 15 -30 22 0 7 -3 10 -6 6 -4 -3 -25 4 -48 15
-22 12 -44 21 -48 20 -5 -1 -8 3 -8 8 0 6 -4 10 -9 10 -5 0 -26 8 -47 17 -22
9 -42 16 -46 15 -5 -1 -8 3 -8 10 0 6 -3 9 -6 5 -4 -3 -23 1 -43 9 -57 25
-150 52 -155 46 -3 -2 -11 0 -18 5 -15 12 -54 21 -118 29 -24 3 -47 8 -50 12
-6 9 -19 11 -73 15 -24 2 -48 7 -55 10 -6 4 -13 3 -17 -3 -4 -6 -11 -8 -16 -4
-9 5 -32 9 -114 18 -12 1 -26 5 -32 9 -6 4 -14 4 -16 0 -4 -7 -63 -9 -77 -2
-3 1 -582 2 -1287 3 -1207 1 -1284 0 -1315 -16z"/>
</g>
</svg>
