<?xml version="1.0" standalone="no"?>
<!DOCTYPE svg PUBLIC "-//W3C//DTD SVG 20010904//EN"
 "http://www.w3.org/TR/2001/REC-SVG-20010904/DTD/svg10.dtd">
<svg version="1.0" xmlns="http://www.w3.org/2000/svg"
 width="1280.000000pt" height="1280.000000pt" viewBox="0 0 1280.000000 1280.000000"
 preserveAspectRatio="xMidYMid meet">
<metadata>
Created by potrace 1.11, written by Peter Selinger 2001-2013
</metadata>
<g transform="translate(0.000000,1280.000000) scale(0.100000,-0.100000)"
fill="#000000" stroke="none">
<path d="M4560 9772 c0 -7 -4 -10 -10 -7 -5 3 -10 0 -10 -7 0 -10 -2 -10 -9 1
-6 9 -11 10 -15 3 -4 -6 -14 -8 -23 -5 -10 4 -14 2 -10 -4 5 -7 -1 -9 -15 -5
-16 4 -19 2 -13 -9 7 -12 6 -12 -7 -1 -9 7 -19 9 -22 4 -9 -14 -56 -21 -56 -8
0 6 -4 5 -9 -3 -5 -7 -25 -14 -44 -15 -19 0 -33 -4 -31 -7 2 -4 -3 -9 -11 -13
-8 -3 -15 -1 -15 5 0 6 -7 6 -20 -1 -15 -8 -20 -8 -20 2 0 9 -3 9 -12 0 -7 -7
-20 -12 -30 -12 -10 0 -18 -6 -18 -12 0 -10 -2 -10 -9 0 -4 8 -12 14 -16 14
-4 0 -12 -6 -16 -14 -7 -11 -9 -11 -9 1 0 10 -4 11 -12 3 -7 -6 -30 -9 -50 -8
-21 1 -38 -3 -38 -7 0 -5 -11 -7 -25 -5 -15 3 -22 1 -18 -5 4 -6 -4 -7 -21 -3
-18 4 -25 3 -21 -4 4 -7 -2 -7 -18 -1 -13 5 -30 6 -37 1 -7 -4 -19 -6 -27 -3
-7 3 -13 -1 -13 -8 0 -10 -2 -11 -8 -2 -8 13 -29 12 -51 -1 -11 -7 -12 -6 -6
5 7 11 6 12 -6 2 -12 -10 -18 -10 -29 0 -10 9 -11 9 -6 -1 5 -8 0 -11 -16 -8
-13 2 -33 0 -44 -5 -13 -4 -26 -3 -34 4 -9 8 -11 8 -7 1 5 -8 -12 -11 -56 -9
-34 1 -68 -3 -76 -9 -12 -9 -13 -8 -6 3 6 11 4 13 -7 8 -9 -3 -21 0 -28 6 -7
7 -10 7 -7 1 4 -7 -15 -10 -56 -9 -34 1 -68 -3 -76 -9 -11 -8 -13 -8 -7 2 4 7
1 12 -8 12 -9 0 -16 -6 -16 -12 0 -9 -3 -9 -8 -3 -5 7 -223 10 -677 10 -459
-1 -675 2 -684 9 -11 8 -13 8 -7 -1 5 -9 0 -13 -14 -13 -14 0 -19 4 -14 13 5
9 4 9 -6 0 -7 -6 -19 -9 -26 -6 -8 3 -14 -1 -14 -8 0 -11 -2 -11 -9 0 -8 12
-12 12 -24 2 -11 -8 -17 -9 -22 -1 -7 12 -42 9 -64 -4 -10 -6 -12 -5 -7 2 4 7
1 12 -8 12 -9 0 -16 -6 -16 -12 0 -8 -3 -9 -8 -3 -10 15 -142 16 -142 2 0 -9
-2 -9 -8 0 -8 13 -29 12 -51 -1 -10 -6 -12 -5 -7 2 4 7 1 12 -8 12 -9 0 -16
-6 -16 -12 0 -8 -3 -9 -8 -3 -10 15 -142 16 -142 2 0 -9 -2 -9 -8 0 -8 13 -29
12 -51 -1 -10 -6 -12 -5 -7 2 4 7 1 12 -8 12 -9 0 -16 -6 -16 -12 0 -8 -3 -9
-8 -3 -10 15 -142 16 -142 2 0 -9 -2 -9 -8 0 -8 13 -29 12 -51 -1 -10 -6 -12
-5 -7 2 4 7 1 12 -8 12 -9 0 -16 -6 -16 -12 0 -8 -3 -9 -8 -3 -10 15 -142 16
-142 2 0 -9 -2 -9 -8 0 -8 13 -29 12 -51 -1 -10 -6 -12 -5 -7 2 4 7 1 12 -8
12 -9 0 -16 -6 -16 -12 0 -9 -2 -10 -8 -2 -4 7 -27 10 -55 9 -34 -2 -45 0 -40
8 4 7 -1 6 -10 -2 -14 -11 -20 -11 -33 -1 -12 11 -15 11 -12 0 2 -8 -3 -15 -9
-16 -7 -1 -16 -2 -21 -3 -4 0 -13 -10 -19 -21 -11 -16 -10 -18 2 -14 9 4 15 0
15 -8 0 -21 39 -36 93 -34 26 0 49 -3 51 -9 3 -6 5 -6 5 0 1 9 15 10 99 3 6
-1 12 -5 12 -9 0 -4 8 -8 18 -8 39 -1 52 -5 52 -14 0 -6 3 -7 7 -4 3 4 13 1
21 -6 13 -10 14 -9 7 3 -4 8 2 5 14 -8 12 -12 26 -20 32 -17 5 4 9 1 9 -4 0
-6 7 -11 15 -11 9 0 18 -7 22 -16 3 -8 12 -13 19 -10 7 3 16 -4 19 -15 4 -10
11 -17 16 -14 5 4 9 2 9 -4 0 -5 9 -13 20 -16 11 -4 18 -11 15 -16 -4 -5 -2
-9 4 -9 5 0 13 -9 16 -20 4 -11 10 -18 14 -15 5 2 13 -7 19 -20 7 -14 16 -25
22 -25 5 0 10 -9 10 -20 0 -11 4 -20 8 -20 5 0 15 -12 23 -27 8 -16 17 -31 22
-34 4 -3 9 -15 12 -27 2 -12 8 -29 13 -38 5 -9 7 -26 4 -37 -4 -14 -2 -18 7
-12 10 6 11 3 2 -12 -6 -11 -8 -23 -4 -26 3 -4 0 -13 -7 -22 -10 -12 -9 -16 4
-21 12 -5 14 -10 6 -19 -8 -10 -7 -16 7 -24 12 -7 13 -10 4 -11 -11 0 -11 -3
0 -17 12 -14 12 -16 0 -8 -11 6 -12 5 -5 -6 11 -18 11 -41 0 -57 -7 -9 -4 -11
10 -5 15 5 17 4 8 -8 -13 -17 -13 -148 0 -168 6 -9 5 -12 -2 -7 -14 8 -12 -34
2 -53 9 -12 8 -13 -3 -7 -9 6 -12 5 -9 -5 3 -8 1 -22 -3 -31 -6 -11 -5 -19 3
-24 7 -5 8 -3 3 6 -5 9 -4 11 4 6 9 -6 9 -11 0 -22 -6 -8 -8 -14 -4 -14 4 0 2
-7 -5 -15 -10 -12 -9 -15 5 -15 14 0 15 -3 5 -15 -7 -9 -10 -18 -7 -22 4 -3 2
-12 -5 -20 -9 -11 -7 -12 8 -6 17 6 17 5 5 -10 -8 -10 -11 -20 -8 -24 4 -3 2
-12 -5 -20 -9 -11 -7 -12 8 -6 15 5 17 4 8 -8 -13 -17 -13 -148 0 -168 6 -9 5
-12 -2 -7 -14 8 -12 -34 2 -53 9 -12 8 -13 -3 -7 -9 6 -12 5 -9 -5 3 -8 1 -22
-3 -31 -6 -11 -5 -19 3 -24 7 -5 8 -3 3 6 -5 9 -4 11 4 6 9 -6 9 -11 0 -22 -6
-8 -8 -14 -4 -14 4 0 2 -7 -5 -15 -10 -12 -9 -15 5 -15 14 0 15 -3 5 -15 -7
-9 -10 -18 -7 -22 4 -3 2 -12 -5 -20 -9 -11 -7 -12 8 -6 17 6 17 5 5 -10 -8
-10 -11 -20 -8 -24 4 -3 2 -12 -5 -20 -9 -11 -7 -12 7 -7 14 6 16 4 9 -7 -13
-20 -13 -151 0 -168 8 -11 8 -13 -1 -8 -15 9 -14 -32 1 -52 9 -12 8 -13 -3 -7
-9 6 -12 5 -9 -5 3 -8 1 -22 -3 -31 -6 -11 -5 -19 3 -24 7 -5 8 -3 3 6 -5 9
-4 11 4 6 9 -6 9 -11 0 -22 -6 -8 -8 -14 -4 -14 4 0 2 -7 -5 -15 -10 -12 -9
-15 5 -15 14 0 15 -3 5 -15 -7 -9 -10 -18 -7 -22 4 -3 2 -12 -5 -20 -9 -11 -7
-12 8 -6 17 6 17 5 5 -10 -8 -10 -11 -20 -8 -24 4 -3 2 -12 -5 -20 -9 -11 -7
-12 8 -6 15 5 17 4 8 -8 -13 -17 -13 -148 0 -168 6 -9 5 -12 -2 -7 -14 8 -12
-34 2 -53 9 -12 8 -13 -3 -7 -9 6 -12 5 -9 -5 3 -8 1 -22 -3 -31 -6 -11 -5
-19 3 -24 7 -5 8 -3 3 6 -5 9 -4 11 4 6 9 -6 9 -11 0 -22 -6 -8 -8 -14 -4 -14
4 0 2 -7 -5 -15 -10 -12 -9 -15 5 -15 14 0 15 -3 5 -15 -7 -9 -10 -18 -7 -22
4 -3 2 -12 -5 -20 -9 -11 -7 -12 8 -6 17 6 17 5 5 -10 -8 -10 -11 -20 -8 -24
4 -3 2 -12 -5 -20 -9 -11 -7 -12 7 -7 14 6 16 4 9 -7 -12 -18 -14 -158 -2
-165 5 -3 4 -12 -3 -20 -6 -8 -9 -17 -6 -21 4 -3 2 -12 -5 -20 -9 -11 -7 -12
8 -6 15 5 17 4 8 -8 -13 -17 -13 -148 0 -168 6 -9 5 -12 -1 -8 -14 9 -12 -86
2 -95 7 -5 6 -8 -1 -8 -7 0 -12 -15 -12 -35 0 -20 5 -35 12 -35 8 0 8 -2 0 -8
-15 -9 -15 -65 0 -74 8 -6 8 -8 0 -8 -7 0 -12 -15 -12 -35 0 -20 5 -35 12 -35
8 0 8 -2 0 -8 -7 -4 -12 -20 -12 -37 0 -16 5 -33 12 -37 8 -6 8 -8 0 -8 -7 0
-12 -15 -12 -35 0 -20 5 -35 12 -35 8 0 8 -2 0 -8 -7 -4 -12 -20 -12 -37 0
-16 5 -33 12 -37 8 -6 8 -8 0 -8 -7 0 -12 -15 -12 -35 0 -20 5 -35 12 -35 8 0
8 -2 0 -8 -7 -4 -12 -20 -12 -37 0 -16 5 -33 12 -37 8 -6 8 -8 0 -8 -7 0 -12
-15 -12 -35 0 -20 5 -35 12 -35 8 0 8 -2 0 -8 -15 -9 -15 -65 0 -74 8 -6 8 -8
0 -8 -7 0 -12 -15 -12 -35 0 -20 5 -35 12 -35 8 0 8 -2 0 -8 -15 -9 -15 -65 0
-74 8 -6 8 -8 0 -8 -7 0 -12 -15 -12 -35 0 -20 5 -35 12 -35 8 0 8 -2 0 -8
-15 -9 -15 -65 0 -74 8 -6 8 -8 0 -8 -7 0 -12 -15 -12 -35 0 -20 5 -35 12 -35
7 0 6 -4 -3 -9 -7 -5 -11 -15 -9 -22 3 -8 1 -22 -4 -31 -5 -11 -5 -18 1 -18
11 0 9 -39 -4 -59 -5 -9 -4 -12 2 -8 6 4 14 0 17 -9 4 -10 2 -13 -6 -8 -7 5
-9 2 -5 -8 3 -9 0 -21 -6 -28 -9 -9 -9 -11 -1 -7 7 4 15 0 18 -9 3 -8 2 -13
-3 -10 -4 3 -8 -8 -9 -24 0 -17 5 -30 11 -30 8 0 8 -3 2 -8 -16 -11 -18 -44
-3 -53 8 -5 9 -9 2 -9 -6 0 -11 -11 -11 -25 0 -14 5 -25 11 -25 7 0 8 -3 1 -8
-14 -9 -17 -52 -4 -52 6 0 3 -7 -6 -16 -15 -15 -15 -18 -1 -32 14 -14 14 -18
-1 -34 -9 -10 -11 -18 -6 -18 6 0 14 -7 17 -16 4 -10 2 -13 -6 -8 -7 5 -9 2
-5 -8 3 -9 0 -21 -6 -28 -9 -9 -9 -11 -1 -7 7 4 15 0 18 -9 4 -10 2 -13 -6 -8
-7 5 -9 2 -5 -8 3 -9 0 -21 -6 -28 -9 -9 -9 -11 -1 -7 7 4 15 0 18 -9 3 -8 2
-13 -3 -10 -4 3 -8 -8 -9 -24 0 -17 5 -30 11 -30 8 0 8 -3 2 -8 -16 -11 -18
-44 -3 -53 8 -5 9 -9 2 -9 -6 0 -11 -11 -11 -25 0 -14 5 -25 11 -25 7 0 8 -3
1 -8 -14 -9 -17 -52 -4 -52 6 0 3 -7 -6 -16 -14 -15 -14 -18 -1 -33 14 -15 14
-19 -1 -34 -10 -9 -12 -17 -6 -17 6 0 14 -7 17 -16 4 -10 2 -13 -6 -8 -7 5 -9
2 -5 -8 3 -9 0 -21 -6 -28 -9 -9 -9 -11 -1 -7 7 4 15 0 18 -9 4 -10 2 -13 -6
-8 -7 5 -9 2 -5 -8 3 -9 0 -21 -6 -28 -9 -9 -9 -11 -1 -7 7 4 15 0 18 -9 3 -8
2 -13 -3 -10 -4 3 -8 -8 -9 -24 0 -17 5 -30 11 -30 8 0 8 -3 2 -8 -16 -11 -18
-44 -3 -53 8 -5 9 -9 2 -9 -6 0 -11 -11 -11 -25 0 -14 5 -25 11 -25 7 0 8 -3
1 -8 -15 -10 -17 -84 -2 -75 7 4 6 -1 -2 -10 -8 -10 -11 -20 -8 -24 4 -3 2
-14 -3 -24 -7 -12 -7 -20 0 -24 8 -5 7 -11 -1 -21 -7 -9 -8 -14 -3 -13 23 4
26 -2 8 -17 -10 -8 -13 -12 -5 -8 10 5 13 3 8 -8 -3 -9 0 -21 6 -28 9 -9 9
-11 1 -7 -7 4 -15 0 -18 -9 -4 -9 -2 -13 5 -8 8 4 9 -1 4 -15 -4 -14 -2 -21 7
-21 9 0 9 -3 2 -8 -14 -9 -14 -45 0 -54 8 -6 8 -8 -1 -8 -6 0 -11 -13 -11 -30
1 -18 5 -27 12 -23 6 4 5 0 -1 -9 -7 -8 -10 -18 -6 -21 3 -4 1 -7 -7 -7 -10 0
-10 -3 0 -16 11 -12 11 -15 0 -12 -17 4 -21 -43 -5 -54 6 -5 6 -8 -2 -8 -7 0
-13 -7 -13 -16 0 -9 5 -12 12 -8 10 6 10 4 2 -7 -6 -8 -10 -22 -9 -31 2 -10
-1 -18 -6 -18 -6 0 -8 -4 -4 -9 3 -5 -1 -16 -9 -24 -8 -8 -12 -17 -9 -20 3 -3
-4 -21 -16 -40 -11 -19 -17 -38 -13 -42 4 -5 -1 -5 -10 -2 -10 3 -20 1 -24 -5
-4 -7 -3 -8 4 -4 21 13 13 -16 -10 -35 -11 -11 -18 -19 -15 -19 4 0 -1 -8 -10
-18 -10 -11 -22 -17 -27 -14 -5 3 -6 0 -2 -7 4 -6 0 -14 -8 -17 -9 -3 -13 -10
-10 -15 3 -5 -3 -12 -13 -16 -24 -9 -43 -29 -43 -44 0 -7 -3 -9 -7 -6 -3 4
-12 2 -19 -4 -8 -6 -20 -9 -28 -6 -10 4 -13 1 -9 -8 5 -15 -34 -37 -49 -28 -5
2 -8 -1 -8 -7 0 -7 -7 -9 -16 -6 -8 3 -13 2 -10 -2 2 -4 -7 -12 -20 -19 -18
-8 -24 -8 -24 0 0 8 -3 8 -8 2 -9 -13 -28 -18 -69 -18 -18 -1 -33 -4 -33 -8 0
-4 -16 -6 -35 -4 -20 1 -38 -2 -41 -7 -3 -4 -11 -5 -17 -1 -19 11 -71 11 -79
-1 -5 -7 -8 -5 -8 4 -1 27 -20 -12 -20 -40 0 -20 2 -22 10 -10 8 12 10 12 10
1 0 -10 3 -11 14 -2 10 8 16 9 21 1 3 -6 13 -7 23 -2 21 9 43 9 60 -2 7 -4 20
-2 29 6 14 11 16 11 8 -2 -8 -13 -7 -13 8 -1 10 7 17 9 17 3 0 -11 18 -11 37
1 6 4 14 3 17 -1 6 -10 42 -9 52 1 4 3 15 2 25 -4 14 -7 19 -6 19 3 0 8 3 9 8
3 11 -15 32 -17 32 -3 0 10 2 10 9 0 4 -8 12 -14 16 -14 4 0 12 6 16 14 6 8 9
9 9 1 0 -12 24 -12 36 0 4 4 13 2 20 -3 14 -12 36 -10 47 5 4 7 10 7 15 0 8
-12 27 -13 38 -3 4 4 13 3 20 -2 14 -12 36 -10 46 5 5 7 11 7 15 0 9 -12 23
-13 40 -2 6 4 14 3 17 -1 6 -10 42 -9 52 1 4 3 15 2 25 -4 14 -7 19 -6 19 3 0
8 3 9 8 3 11 -15 32 -17 32 -3 0 10 2 10 9 0 11 -17 21 -17 32 0 6 8 9 9 9 1
0 -12 24 -12 36 0 4 4 13 2 20 -3 14 -12 36 -10 47 5 4 7 10 7 15 0 8 -12 27
-13 38 -3 4 4 13 3 20 -2 14 -12 36 -10 47 5 4 7 10 7 15 0 8 -12 22 -13 39
-2 6 4 14 3 17 -1 6 -10 42 -9 52 1 4 3 15 2 25 -4 14 -7 19 -6 19 3 0 8 3 9
8 3 11 -15 32 -17 32 -3 0 10 2 10 9 0 11 -17 21 -17 32 0 6 8 9 9 9 1 0 -12
24 -12 36 0 4 4 13 2 20 -3 14 -12 36 -10 47 5 4 7 10 7 15 0 8 -12 27 -13 38
-3 4 4 13 3 20 -2 14 -12 36 -10 46 5 5 7 11 7 15 0 9 -12 23 -13 40 -2 6 4
14 3 17 -1 6 -10 42 -9 52 1 4 3 15 2 25 -4 14 -7 19 -6 19 3 0 10 2 10 9 0 4
-8 12 -14 16 -14 4 0 12 6 16 14 6 9 9 9 9 1 0 -11 30 -10 49 2 5 3 12 1 15
-4 7 -10 25 -9 44 2 6 5 12 4 12 -1 0 -12 53 -10 62 3 5 6 8 6 8 -2 0 -12 17
-12 38 0 7 5 12 3 12 -5 0 -9 3 -9 8 -2 4 6 13 13 20 15 10 3 8 9 -6 24 -16
17 -31 20 -95 19 -42 0 -74 2 -73 5 2 3 -13 6 -35 7 -22 0 -36 -3 -32 -9 3 -6
1 -7 -5 -3 -7 4 -12 15 -12 24 0 15 -2 15 -10 2 -6 -9 -13 -11 -17 -5 -5 6
-19 12 -33 13 -14 2 -26 8 -28 13 -2 5 -12 9 -23 9 -10 0 -19 5 -19 11 0 5 -4
7 -10 4 -6 -3 -10 -1 -10 6 0 7 -3 10 -6 6 -4 -3 -13 1 -21 9 -8 8 -19 12 -24
8 -5 -3 -8 0 -7 8 2 7 -5 12 -14 12 -10 -1 -16 1 -14 5 2 3 -2 12 -10 19 -8 7
-14 9 -14 5 0 -4 -8 7 -16 24 -9 18 -19 31 -23 29 -3 -2 -20 12 -38 30 -18 19
-29 34 -26 34 4 0 -2 7 -13 16 -10 8 -13 13 -7 9 8 -4 11 -1 7 9 -3 8 -12 17
-20 20 -8 3 -14 14 -14 24 0 10 -8 27 -17 38 -10 10 -20 33 -22 49 -1 17 -8
38 -13 49 -8 14 -7 17 4 10 11 -6 11 -5 -1 9 -10 13 -10 17 -1 17 10 0 10 3 0
15 -10 12 -10 15 0 15 9 0 10 3 1 13 -8 10 -7 17 2 27 9 10 9 11 -1 6 -10 -6
-12 47 -10 273 2 181 -1 283 -7 285 -5 3 -5 5 2 5 8 1 9 10 3 31 -7 25 -6 30
8 31 11 0 12 2 4 6 -10 4 -12 127 -12 589 0 322 -2 589 -4 593 -3 5 -3 11 0
13 3 3 5 181 4 396 0 289 3 392 11 398 8 5 9 3 4 -7 -7 -12 -6 -12 9 0 15 13
19 13 27 0 6 -10 9 -10 9 -1 0 6 11 12 25 12 14 0 25 -6 25 -12 0 -9 3 -10 8
-2 4 6 16 11 27 11 11 0 23 -5 27 -11 5 -8 8 -7 8 2 0 6 11 12 25 12 14 0 25
-6 25 -12 0 -9 3 -10 8 -2 9 14 125 13 134 -1 5 -6 8 -6 8 3 0 6 11 12 25 12
14 0 25 -6 25 -12 0 -9 3 -10 8 -2 4 6 16 11 27 11 11 0 23 -5 27 -11 5 -8 8
-7 8 2 0 6 11 12 25 12 14 0 25 -6 25 -12 0 -9 3 -10 8 -2 9 14 125 13 134 -1
5 -6 8 -6 8 3 0 6 11 12 25 12 14 0 25 -6 25 -12 0 -9 3 -10 8 -2 4 6 16 11
27 11 11 0 23 -5 27 -11 5 -8 8 -7 8 2 0 6 11 12 25 12 14 0 25 -6 25 -12 0
-9 3 -10 8 -2 9 14 125 13 134 -1 5 -6 8 -6 8 3 0 6 11 12 25 12 14 0 25 -6
25 -12 0 -9 3 -10 8 -2 4 6 16 11 27 11 11 0 23 -5 27 -11 5 -8 8 -7 8 2 0 6
11 12 25 12 14 0 25 -6 25 -12 0 -9 3 -10 8 -2 9 14 112 14 112 0 0 -8 2 -8 8
0 9 14 145 14 154 0 5 -8 8 -8 8 0 0 15 80 14 80 0 0 -8 2 -8 8 0 7 11 152 14
152 4 0 -8 11 -9 80 -11 29 -1 50 -6 50 -13 0 -6 5 -4 10 4 5 8 10 10 10 5 0
-6 20 -17 45 -24 25 -7 42 -17 39 -22 -5 -8 17 -14 38 -10 5 0 7 -2 7 -7 -3
-18 2 -33 9 -28 10 6 72 -57 72 -73 0 -6 5 -11 10 -11 6 0 10 -9 10 -21 0 -11
3 -18 8 -16 4 2 19 -20 33 -49 21 -42 24 -54 12 -54 -12 0 -12 -2 1 -16 9 -8
13 -21 9 -27 -4 -7 0 -8 13 -3 15 6 17 5 7 -5 -16 -16 -17 -33 -1 -23 7 5 8 3
3 -6 -4 -7 -8 -26 -7 -42 0 -19 -3 -26 -11 -21 -9 5 -9 3 -1 -8 15 -18 15 -69
0 -69 -7 0 -6 -3 2 -9 7 -4 12 -12 11 -17 -4 -22 2 -35 13 -28 7 5 9 2 6 -7
-4 -10 2 -15 17 -17 13 -1 26 5 29 14 3 8 11 12 17 8 8 -4 8 0 0 15 -7 12 -8
21 -2 21 6 0 6 11 1 29 -6 21 -5 31 3 35 9 3 9 5 0 5 -9 1 -10 8 -4 24 5 14 5
30 0 40 -7 12 -6 17 3 17 9 0 9 3 -2 10 -8 5 -10 10 -4 10 8 0 9 11 4 35 -4
19 -4 35 0 35 5 0 5 14 0 30 -5 17 -5 30 -1 30 5 0 5 18 1 40 -5 26 -3 41 4
43 8 3 8 8 -1 17 -8 8 -9 20 -3 36 6 14 6 26 0 29 -5 3 -6 15 -1 28 5 14 5 30
0 40 -7 12 -6 17 3 17 9 0 9 3 -2 10 -8 5 -10 10 -4 10 8 0 9 11 4 35 -4 19
-4 35 0 35 5 0 5 13 0 29 -6 21 -5 31 3 35 9 3 9 5 0 5 -9 1 -10 8 -4 24 5 14
5 30 0 40 -7 12 -6 17 3 17 9 0 9 3 -2 10 -8 5 -10 10 -4 10 8 0 9 11 4 35 -4
19 -4 35 0 35 5 0 5 14 0 30 -5 17 -5 30 -1 30 5 0 5 18 1 40 -5 26 -3 41 4
44 7 3 6 8 -4 15 -8 6 -10 11 -4 11 8 0 9 11 4 35 -4 19 -4 35 0 35 5 0 5 13
0 29 -6 21 -5 31 3 35 9 3 9 5 0 5 -9 1 -10 8 -4 24 5 14 5 30 0 40 -7 12 -6
17 3 17 9 0 9 3 -2 10 -8 5 -10 10 -4 10 8 0 9 13 4 40 -4 22 -4 40 0 40 4 0
4 16 0 35 -5 21 -4 35 2 35 5 0 6 5 3 10 -4 6 -11 8 -16 4 -5 -3 -9 -2 -8 3 1
4 -1 16 -5 25 -7 16 -10 16 -31 2 -25 -16 -39 -62 -24 -81 7 -7 6 -14 -2 -19
-8 -5 -9 -3 -4 6 5 9 4 11 -4 6 -7 -5 -9 -12 -3 -19 11 -15 10 -57 -2 -76 -6
-10 -6 -12 2 -7 16 10 15 -16 0 -33 -10 -11 -10 -13 0 -7 6 4 12 2 12 -3 0 -6
-5 -11 -11 -11 -6 0 -9 -7 -5 -15 3 -8 1 -15 -5 -15 -6 0 -7 -5 -4 -10 4 -6
-1 -23 -11 -38 -10 -15 -17 -33 -15 -41 1 -8 -3 -18 -11 -22 -7 -5 -13 -12
-13 -16 0 -5 -10 -19 -22 -33 -13 -13 -23 -30 -23 -37 0 -7 -5 -13 -11 -13 -7
0 -23 -12 -37 -27 -14 -16 -30 -28 -34 -28 -5 0 -12 -4 -16 -10 -11 -15 -53
-37 -59 -31 -4 3 -12 -2 -20 -12 -10 -11 -12 -12 -8 -2 6 13 4 13 -7 0 -7 -9
-25 -15 -41 -13 -19 1 -25 -2 -21 -10 5 -8 3 -8 -7 1 -16 15 -46 16 -51 2 -4
-14 -140 -21 -155 -8 -9 7 -13 7 -13 -1 0 -11 -64 -6 -84 7 -5 3 -6 0 -2 -6 8
-13 -41 -11 -62 2 -7 4 -12 3 -12 -2 0 -11 -102 -8 -121 3 -7 5 -10 4 -6 -1 7
-12 -193 -12 -212 0 -10 6 -12 5 -7 -2 8 -13 -20 -12 -41 1 -8 5 -13 4 -13 -3
0 -11 -40 -7 -61 6 -8 4 -9 3 -5 -4 8 -13 -20 -12 -41 1 -7 5 -13 5 -13 0 0
-11 -441 -10 -459 1 -10 6 -12 5 -7 -2 8 -13 -20 -12 -41 1 -8 5 -13 4 -13 -3
0 -11 -40 -7 -61 6 -8 4 -9 3 -5 -4 8 -13 -20 -12 -41 1 -7 5 -13 5 -13 0 0
-4 -54 -8 -120 -8 -66 0 -120 4 -120 8 0 5 -4 6 -9 3 -5 -3 -11 3 -14 14 -3
11 -2 20 1 20 8 0 5 2697 -3 2709 -2 5 -2 11 1 14 3 3 6 79 7 169 l2 163 27
-1 c16 -1 28 4 28 9 0 6 7 2 16 -9 8 -10 13 -13 9 -6 -3 6 -2 12 2 12 5 0 15
-6 22 -12 11 -11 13 -10 7 0 -5 9 1 12 23 10 17 -1 31 -7 31 -13 0 -7 3 -6 8
1 10 15 104 16 95 1 -4 -7 0 -6 10 2 9 7 23 11 31 8 7 -3 19 0 26 6 10 9 11 9
6 0 -4 -8 1 -11 14 -10 11 1 20 6 20 11 0 5 7 1 16 -10 8 -10 13 -13 9 -6 -3
6 -2 12 2 12 5 0 15 -6 22 -12 11 -11 13 -10 7 0 -5 9 4 11 36 9 24 -1 49 -6
57 -11 9 -6 12 -5 8 1 -5 7 13 10 51 9 31 -1 63 3 71 8 11 8 13 8 8 -1 -5 -8
0 -11 13 -10 11 1 20 6 20 11 0 5 7 1 16 -10 8 -10 13 -13 9 -6 -3 6 -2 12 2
12 5 0 15 -6 22 -12 11 -11 13 -10 7 0 -5 9 1 12 23 10 17 -1 31 -7 31 -13 0
-7 3 -6 8 1 10 15 104 16 95 1 -4 -7 0 -6 10 2 9 7 23 11 31 8 7 -3 19 0 26 6
10 9 11 9 6 0 -4 -8 1 -11 14 -10 11 1 20 6 20 11 0 5 7 1 16 -10 8 -10 13
-13 9 -6 -3 6 -2 12 2 12 5 0 15 -6 22 -12 11 -11 13 -10 7 0 -5 9 4 11 36 9
24 -1 49 -6 57 -11 9 -6 12 -5 8 1 -8 13 142 12 162 -1 9 -6 12 -5 7 2 -8 14
36 12 46 -3 5 -6 8 -2 8 9 0 13 4 16 13 9 6 -5 26 -8 42 -8 17 1 36 -3 44 -9
11 -8 13 -8 8 1 -9 15 35 14 45 -2 5 -6 8 -2 8 8 0 12 4 16 13 10 6 -4 19 -8
27 -8 8 0 21 -4 29 -9 9 -6 12 -5 7 2 -9 14 94 13 113 -2 11 -8 13 -8 8 0 -4
7 2 14 13 17 11 3 18 1 15 -3 -3 -5 4 -8 15 -7 11 1 20 6 20 11 0 5 7 1 16
-10 8 -10 13 -13 9 -6 -3 6 -2 12 2 12 5 0 15 -6 22 -12 11 -11 12 -10 6 0 -5
10 0 13 21 11 16 -2 35 -8 43 -14 11 -8 13 -7 7 4 -7 10 -3 12 14 6 17 -5 20
-4 15 5 -6 9 -3 10 10 3 10 -6 27 -8 38 -5 15 4 18 2 12 -9 -7 -11 -6 -12 6
-3 18 13 107 16 114 3 4 -5 12 -9 18 -9 7 0 6 4 -3 10 -8 5 -10 10 -4 10 6 0
14 -3 17 -7 4 -3 24 -8 45 -10 20 -2 38 -8 40 -13 2 -6 11 -6 22 0 15 8 21 6
29 -7 5 -10 13 -17 18 -17 15 2 38 -9 55 -28 9 -11 19 -19 22 -19 18 2 24 -1
36 -24 7 -14 15 -23 18 -20 6 6 32 -21 32 -34 0 -6 5 -11 10 -11 6 0 10 -7 10
-15 0 -8 4 -15 8 -15 10 0 37 -50 34 -62 -1 -5 2 -8 8 -8 6 0 10 -9 10 -21 0
-11 5 -17 10 -14 12 8 13 -5 1 -24 -6 -9 -4 -23 7 -40 10 -14 12 -22 5 -18
-14 9 -18 -14 -6 -27 9 -8 11 -96 3 -96 -3 0 -6 -11 -6 -25 -1 -14 2 -22 7
-19 5 3 6 -2 3 -10 -3 -9 -2 -16 4 -16 5 0 12 -9 15 -20 6 -24 17 -25 43 -4
10 8 12 13 4 9 -8 -4 -6 1 4 9 11 9 16 16 12 16 -5 0 -3 7 4 15 10 12 10 15 0
15 -9 0 -10 3 -1 13 8 10 7 17 -1 25 -7 7 -8 12 -2 12 5 0 9 11 9 25 0 14 -4
25 -10 25 -5 0 -3 5 5 10 8 5 11 10 5 10 -5 0 -10 11 -10 25 0 14 2 25 5 25 3
0 6 9 6 20 0 11 -3 20 -7 20 -10 0 -5 34 6 42 6 5 4 8 -5 8 -13 0 -13 1 0 10
11 7 11 10 2 10 -8 0 -10 5 -5 13 12 19 12 37 1 37 -6 0 -5 6 2 15 7 8 9 15 4
15 -5 0 -9 11 -9 25 0 14 2 25 5 25 3 0 5 11 5 25 0 14 -4 25 -9 25 -5 0 -3 7
4 15 9 11 9 15 1 15 -9 0 -9 5 -1 20 8 15 8 20 -1 20 -8 0 -8 4 1 15 8 10 9
15 1 15 -7 0 -8 8 -1 25 7 17 6 25 -1 25 -8 0 -7 5 1 15 8 10 9 15 1 15 -7 0
-8 8 -1 25 5 14 6 25 1 25 -12 0 -9 33 4 42 6 5 4 8 -5 8 -13 0 -13 1 0 10 11
7 11 10 2 10 -8 0 -10 5 -5 13 12 19 12 37 1 37 -6 0 -5 6 2 15 7 8 9 15 4 15
-5 0 -9 11 -9 25 0 14 2 25 5 25 3 0 5 11 5 25 0 14 -4 25 -10 25 -5 0 -5 4 2
8 9 6 6 16 -12 37 -13 17 -24 24 -25 17z"/>
<path d="M6345 9631 c6 -11 3 -13 -15 -8 -13 3 -29 2 -36 -4 -8 -7 -14 -7 -18
0 -4 6 -13 8 -21 5 -8 -4 -12 -11 -8 -17 3 -6 1 -7 -6 -3 -6 4 -18 1 -26 -8
-10 -9 -11 -17 -5 -21 6 -4 7 -11 4 -17 -4 -6 -2 -8 3 -5 6 4 13 0 17 -8 3 -8
12 -12 21 -9 8 4 15 1 15 -6 0 -10 3 -10 14 -1 11 9 15 9 19 -1 3 -7 6 -8 6
-3 1 6 27 9 63 8 98 -4 133 -9 131 -20 -1 -5 12 -7 29 -5 24 4 29 2 23 -8 -6
-10 -4 -12 8 -7 9 3 19 2 22 -4 4 -5 11 -7 16 -4 5 4 9 3 9 -2 0 -4 12 -17 27
-27 14 -11 23 -13 18 -6 -6 10 -4 12 9 7 10 -4 20 -7 22 -7 3 0 3 -4 -1 -9 -3
-5 4 -12 15 -16 11 -4 17 -11 14 -17 -5 -7 -1 -9 9 -5 10 3 17 3 17 -2 0 -13
36 -51 49 -51 7 0 9 -4 6 -10 -3 -5 1 -10 9 -10 9 0 13 -6 10 -14 -3 -8 2 -17
13 -20 11 -3 26 -22 33 -41 8 -19 17 -35 22 -35 4 0 8 -6 8 -14 0 -8 5 -16 11
-18 5 -2 11 -10 12 -18 2 -8 6 -21 10 -27 5 -7 5 -18 1 -25 -4 -6 -3 -8 3 -5
6 4 13 0 17 -8 3 -8 1 -17 -5 -21 -6 -3 -3 -11 8 -20 12 -9 14 -13 4 -14 -10
0 -10 -6 4 -26 11 -18 12 -24 4 -18 -12 6 -12 5 0 -9 11 -14 11 -17 0 -17 -11
0 -11 -2 1 -10 8 -5 11 -10 6 -10 -5 0 -3 -7 4 -15 8 -9 8 -15 2 -15 -7 0 -8
-10 -2 -30 5 -17 5 -30 0 -30 -5 0 -5 -13 0 -29 4 -16 7 -31 5 -33 -6 -5 -7
-99 -2 -130 3 -17 -1 -29 -11 -33 -11 -4 -12 -8 -3 -19 12 -15 21 -156 10
-156 -4 0 -3 -18 1 -40 4 -22 4 -40 -1 -40 -5 0 -6 -6 -4 -12 10 -28 13 -68 6
-68 -5 0 -5 -18 -1 -40 4 -22 4 -40 -1 -40 -4 0 -4 -13 1 -29 4 -16 7 -31 5
-33 -6 -5 -7 -99 -2 -130 3 -17 -1 -29 -11 -33 -11 -4 -12 -8 -3 -19 12 -15
21 -156 10 -156 -4 0 -3 -18 1 -40 4 -22 4 -40 -1 -40 -5 0 -6 -6 -4 -12 10
-28 13 -68 6 -68 -5 0 -5 -18 -1 -40 4 -22 4 -40 -1 -40 -4 0 -4 -13 1 -29 4
-16 7 -31 5 -33 -6 -5 -7 -99 -2 -130 3 -17 -1 -29 -11 -33 -11 -4 -12 -8 -3
-19 12 -15 21 -156 10 -156 -4 0 -3 -18 1 -40 4 -22 4 -40 -1 -40 -5 0 -6 -6
-4 -12 10 -28 13 -68 6 -68 -5 0 -5 -18 -1 -40 4 -22 4 -40 -1 -40 -4 0 -4
-13 1 -29 4 -16 7 -31 5 -33 -6 -5 -7 -99 -2 -130 3 -17 -1 -29 -11 -33 -11
-4 -12 -8 -3 -19 12 -15 21 -156 10 -156 -4 0 -3 -18 1 -40 4 -22 4 -40 -1
-40 -5 0 -6 -6 -3 -13 10 -27 10 -87 0 -87 -6 0 -4 -5 4 -10 8 -5 10 -10 4
-10 -8 0 -9 -13 -4 -40 4 -22 4 -40 0 -40 -11 0 -7 -34 5 -42 6 -5 5 -8 -4 -8
-11 0 -11 -3 -1 -15 7 -8 8 -15 3 -15 -7 0 -8 -15 -3 -40 4 -22 4 -40 -1 -40
-4 0 -4 -13 1 -30 6 -21 5 -30 -3 -30 -7 0 -6 -4 3 -10 8 -5 10 -10 4 -10 -8
0 -9 -13 -4 -40 4 -22 4 -40 0 -40 -11 0 -7 -34 5 -42 6 -5 5 -8 -4 -8 -11 0
-11 -3 -1 -15 7 -8 8 -15 3 -15 -7 0 -8 -15 -3 -40 4 -22 5 -40 1 -40 -6 0 -5
-102 2 -152 3 -17 -1 -29 -11 -33 -11 -4 -12 -8 -3 -19 12 -15 21 -156 10
-156 -4 0 -3 -18 1 -40 4 -22 4 -40 -1 -40 -4 0 -4 -13 1 -29 4 -16 7 -31 5
-33 -6 -5 -7 -99 -2 -130 3 -17 -1 -29 -11 -33 -11 -4 -12 -8 -3 -19 12 -15
21 -156 10 -156 -4 0 -3 -18 1 -40 4 -22 4 -40 -1 -40 -4 0 -4 -13 1 -29 4
-16 7 -31 5 -33 -6 -5 -7 -99 -2 -130 3 -17 -1 -29 -11 -33 -11 -4 -12 -8 -3
-19 15 -18 20 -176 6 -176 -5 0 -3 -5 5 -10 8 -5 10 -10 4 -10 -8 0 -9 -13 -4
-40 4 -22 4 -40 0 -40 -11 0 -7 -34 5 -42 6 -5 5 -8 -4 -8 -11 0 -11 -3 -1
-15 7 -8 8 -15 3 -15 -7 0 -8 -15 -3 -40 4 -22 4 -40 -1 -40 -4 0 -4 -13 1
-30 6 -21 5 -30 -3 -30 -7 0 -6 -4 3 -10 8 -5 10 -10 4 -10 -8 0 -9 -13 -4
-40 4 -22 4 -40 0 -40 -11 0 -7 -34 5 -42 6 -5 5 -8 -4 -8 -11 0 -11 -3 -1
-15 7 -8 8 -15 3 -15 -7 0 -8 -15 -3 -40 4 -22 3 -40 -2 -40 -5 0 -4 -9 2 -20
6 -11 7 -20 2 -20 -5 0 -6 -18 -2 -40 4 -22 4 -40 -1 -40 -4 0 -4 -13 1 -29 4
-16 7 -31 5 -33 -6 -5 -7 -99 -2 -130 3 -17 -1 -29 -11 -33 -11 -4 -12 -8 -3
-19 13 -15 21 -156 9 -156 -4 0 -5 -7 -2 -15 4 -8 1 -21 -4 -28 -6 -7 -7 -18
-2 -27 4 -7 4 -24 -1 -37 -5 -13 -8 -27 -8 -31 3 -19 -2 -33 -10 -28 -4 3 -6
-6 -3 -21 4 -19 2 -24 -8 -18 -9 5 -11 4 -6 -4 4 -6 2 -19 -6 -28 -11 -14 -11
-16 2 -9 11 6 11 4 -1 -6 -9 -7 -19 -23 -23 -36 -4 -12 -13 -22 -19 -22 -8 0
-7 -3 2 -9 11 -7 9 -10 -8 -16 -12 -3 -19 -11 -16 -16 4 -5 -1 -9 -10 -9 -9 0
-14 -4 -11 -8 3 -5 -6 -20 -20 -35 -13 -14 -24 -31 -24 -37 0 -5 -7 -10 -15
-10 -8 0 -14 -6 -13 -12 2 -7 -3 -12 -9 -10 -7 1 -13 -3 -13 -8 0 -6 -12 -15
-26 -20 -15 -6 -22 -14 -18 -22 4 -7 3 -8 -4 -4 -7 4 -12 1 -12 -6 0 -9 -3 -9
-10 2 -8 13 -10 13 -10 -2 0 -11 -5 -15 -15 -12 -8 4 -15 1 -15 -6 0 -6 -4 -8
-10 -5 -5 3 -10 1 -10 -4 0 -6 -6 -10 -12 -9 -7 2 -12 -2 -11 -8 1 -6 -9 -10
-22 -8 -14 1 -25 -3 -25 -9 0 -7 -4 -6 -10 3 -8 13 -10 12 -15 -1 -4 -11 -19
-15 -50 -14 -30 0 -46 -4 -50 -13 -4 -10 -9 -11 -18 -4 -6 5 -21 8 -32 6 -10
-1 -26 3 -34 9 -12 10 -13 9 -7 -1 6 -11 0 -12 -28 -8 -25 4 -36 2 -36 -7 0
-9 -2 -9 -9 1 -6 10 -11 9 -22 -4 -12 -16 -12 -17 1 -9 9 5 7 -1 -5 -16 -11
-13 -16 -21 -11 -17 4 4 19 3 31 -2 16 -6 25 -5 27 2 3 8 9 8 19 2 19 -12 52
-12 62 1 5 7 9 7 15 0 8 -12 27 -13 38 -3 4 4 13 3 20 -2 14 -12 36 -10 47 5
4 7 10 7 15 0 8 -12 22 -13 38 -3 6 4 14 4 18 1 10 -10 46 -11 52 -1 3 4 14 3
25 -2 14 -8 19 -7 19 2 0 8 3 9 8 3 11 -15 32 -17 32 -3 0 10 2 10 9 0 11 -17
21 -17 32 0 6 8 9 9 9 1 0 -12 24 -12 36 0 4 4 13 2 20 -3 14 -12 36 -10 47 5
4 7 10 7 15 0 8 -12 27 -13 38 -3 4 4 13 3 20 -2 14 -12 36 -10 47 5 4 7 10 7
15 0 8 -12 22 -13 39 -2 6 4 14 3 17 -1 6 -10 42 -9 52 1 4 3 15 2 25 -4 14
-7 19 -6 19 3 0 8 3 9 8 3 11 -15 32 -17 32 -3 0 10 2 10 9 0 4 -8 12 -14 16
-14 4 0 12 6 16 14 6 8 9 9 9 1 0 -12 24 -12 36 0 4 4 13 2 20 -3 14 -12 36
-10 47 5 4 7 10 7 15 0 8 -12 27 -13 38 -3 4 4 13 3 20 -2 14 -12 36 -10 47 5
4 7 10 7 15 0 8 -12 22 -13 39 -2 6 4 14 3 17 -1 6 -10 42 -9 52 1 4 3 15 2
25 -4 14 -7 19 -6 19 3 0 8 3 9 8 3 11 -15 32 -17 32 -3 0 10 2 10 9 0 4 -8
12 -14 16 -14 4 0 12 6 16 14 6 8 9 9 9 1 0 -12 24 -12 36 0 4 4 13 2 20 -3
14 -12 36 -10 47 5 4 7 10 7 15 0 8 -12 27 -13 38 -3 4 4 13 3 20 -2 14 -12
36 -10 47 5 4 7 10 7 15 0 8 -12 22 -13 38 -3 6 4 14 4 18 0 11 -10 40 -9 48
3 5 7 8 6 8 -1 0 -8 60 -11 80 -4 3 1 10 1 15 0 34 -7 55 -6 55 4 0 7 3 8 8 1
8 -12 22 -13 40 -2 6 5 12 4 12 -2 0 -11 19 -9 39 3 10 7 12 5 6 -3 -6 -10 -3
-11 12 -2 11 6 22 8 25 6 3 -3 5 2 5 10 0 8 -7 15 -16 15 -14 0 -14 2 -1 10
17 11 15 11 -50 14 -25 1 -50 -2 -57 -6 -6 -5 -14 -4 -18 2 -3 6 -11 8 -16 5
-5 -4 -9 0 -9 7 0 10 -2 10 -9 -1 -6 -9 -10 -10 -16 -2 -5 9 -10 9 -20 1 -9
-8 -17 -7 -28 5 -19 18 -31 20 -21 3 5 -9 2 -9 -9 1 -9 7 -17 10 -17 6 0 -4
-8 -1 -17 6 -14 12 -16 12 -9 -1 4 -9 2 -8 -7 2 -8 10 -17 15 -20 11 -4 -3
-13 -1 -20 5 -8 7 -18 8 -22 4 -5 -4 -5 -1 -1 5 4 7 2 13 -4 13 -6 0 -9 4 -6
9 4 5 -3 7 -14 4 -12 -3 -20 0 -20 6 0 7 -4 10 -9 6 -5 -3 -21 6 -34 19 -14
14 -28 22 -31 19 -3 -4 -6 2 -6 12 0 10 -3 16 -6 12 -8 -8 -44 25 -38 35 3 4
-3 5 -12 1 -11 -4 -15 -2 -11 4 4 6 0 14 -9 17 -9 4 -14 9 -11 13 4 3 -6 19
-22 34 -16 15 -27 30 -23 33 3 3 0 6 -7 6 -7 0 -9 5 -6 10 3 6 1 10 -4 10 -6
0 -11 6 -11 13 0 6 -11 25 -25 41 -26 31 -31 41 -15 31 6 -3 10 -1 10 4 0 6
-6 11 -12 11 -9 0 -8 4 2 10 13 8 13 10 -2 10 -11 0 -15 5 -12 14 3 8 1 17 -5
21 -7 4 -8 12 -2 23 6 12 5 24 -5 36 -10 14 -11 23 -3 32 6 7 9 19 6 26 -2 7
0 23 4 36 5 13 5 21 0 18 -5 -3 -7 17 -5 44 2 33 -1 48 -7 44 -6 -3 -5 3 2 14
11 17 10 24 -2 38 -9 12 -10 15 -1 10 10 -6 12 3 8 38 -3 33 -1 44 7 39 9 -5
9 -3 2 8 -11 15 -12 95 -1 106 3 3 -1 15 -10 25 -14 14 -14 21 -4 32 6 9 10
21 7 28 -2 7 0 23 4 36 5 13 5 21 0 18 -5 -3 -7 17 -5 44 2 33 -1 48 -7 44 -6
-3 -5 3 2 14 11 17 10 24 -2 38 -9 12 -10 15 -1 10 10 -6 12 3 8 38 -3 33 -1
44 7 39 9 -5 9 -3 2 8 -11 15 -12 95 -1 106 3 3 -1 15 -10 25 -14 14 -14 21
-4 32 6 9 10 21 7 28 -2 7 0 23 4 36 5 13 5 21 0 18 -5 -3 -7 17 -5 44 2 37 0
49 -9 43 -7 -4 -6 1 2 11 12 14 13 21 2 38 -7 12 -8 17 -1 13 7 -4 9 8 6 39
-3 33 -1 44 7 39 9 -5 9 -3 2 8 -11 15 -12 95 -1 106 3 3 -1 15 -10 25 -14 14
-14 21 -4 32 6 9 10 21 7 28 -2 7 0 23 4 36 5 13 5 21 0 18 -5 -3 -7 17 -5 44
2 33 -1 48 -7 44 -6 -3 -5 3 2 14 11 17 10 24 -2 38 -9 12 -10 15 -1 10 10 -6
12 3 8 38 -3 33 -1 44 7 39 9 -5 9 -3 2 8 -11 15 -12 95 -1 106 3 3 -1 15 -10
25 -14 14 -14 21 -4 32 6 9 10 21 7 28 -2 7 0 23 4 36 5 13 5 21 0 18 -5 -3
-7 17 -5 44 2 33 -1 48 -7 44 -6 -3 -5 3 2 14 11 17 10 24 -2 38 -9 12 -10 15
-1 10 10 -6 12 3 8 38 -3 33 -1 44 7 39 9 -5 9 -3 2 8 -11 15 -12 95 -1 106 3
3 -1 15 -10 25 -14 14 -14 21 -4 32 6 9 10 21 7 28 -2 7 0 23 4 36 5 13 5 21
0 18 -5 -3 -7 17 -5 44 2 33 -1 48 -7 44 -6 -3 -5 3 2 14 11 17 10 24 -2 38
-9 12 -10 15 -1 10 10 -6 12 3 8 38 -3 33 -1 44 7 39 9 -5 9 -3 2 8 -11 15
-12 95 -1 106 3 3 -1 15 -10 25 -14 14 -14 21 -4 32 6 9 10 21 7 28 -2 7 0 23
4 36 5 13 5 21 0 18 -5 -3 -7 17 -5 44 2 33 -1 48 -7 44 -6 -3 -5 3 2 14 11
17 10 24 -2 38 -9 12 -10 15 -1 10 10 -6 12 3 8 38 -3 33 -1 44 7 39 9 -5 9
-3 2 8 -11 15 -12 95 -1 106 3 3 -1 15 -10 25 -14 14 -14 21 -4 32 6 9 10 21
7 28 -2 7 0 23 4 36 5 13 5 21 0 18 -5 -3 -7 17 -5 44 2 33 -1 48 -7 44 -6 -3
-5 3 2 14 11 17 10 24 -2 38 -9 12 -10 15 -1 10 10 -6 12 3 8 38 -3 33 -1 44
7 39 9 -5 9 -3 2 8 -11 15 -12 95 -1 106 3 3 -1 15 -10 25 -14 14 -14 21 -4
32 6 9 10 21 7 28 -2 7 0 23 4 36 5 13 5 21 0 18 -5 -3 -7 17 -5 44 2 33 -1
48 -7 44 -6 -3 -5 3 2 14 11 17 10 24 -2 38 -9 12 -10 15 -1 10 10 -6 12 3 8
38 -3 33 -1 44 7 39 9 -5 9 -3 2 8 -11 15 -12 95 -1 106 3 3 -1 15 -10 25 -12
12 -14 21 -7 30 15 19 15 80 0 71 -7 -4 -7 0 1 10 8 9 12 22 9 29 -2 7 0 23 4
36 5 13 5 21 0 18 -9 -6 -6 92 3 101 3 4 -1 15 -10 25 -14 14 -14 21 -4 32 6
9 10 21 7 28 -2 7 0 23 4 36 5 13 5 21 0 18 -5 -3 -7 17 -5 44 2 33 -1 48 -7
44 -6 -3 -5 3 2 14 11 17 10 24 -2 38 -9 12 -10 15 -1 10 10 -6 12 3 8 38 -3
33 -1 44 7 39 9 -5 9 -3 2 8 -11 15 -12 95 -1 106 3 3 -1 15 -10 25 -14 14
-14 21 -4 32 6 9 10 21 7 28 -2 7 0 23 4 36 5 13 5 21 0 18 -5 -3 -7 17 -5 44
2 33 -1 48 -7 44 -6 -3 -5 3 2 14 11 17 10 24 -2 38 -9 12 -10 15 -1 10 10 -6
12 3 8 38 -3 33 -1 44 7 39 9 -5 9 -3 2 8 -11 15 -12 95 -1 106 3 3 -1 15 -10
25 -14 14 -14 21 -4 32 6 9 10 21 7 28 -2 7 0 23 4 36 5 13 5 21 0 18 -5 -3
-7 17 -5 44 2 33 -1 48 -7 44 -6 -3 -5 3 2 14 11 17 10 24 -2 38 -9 12 -10 15
-1 10 10 -6 12 3 8 38 -3 31 0 44 7 39 6 -4 7 -1 1 8 -12 19 -11 102 1 111 16
12 27 9 19 -4 -6 -10 -5 -10 7 -1 16 13 36 12 58 -1 9 -6 12 -5 7 2 -9 14 94
13 113 -2 11 -8 13 -8 8 0 -4 7 2 14 13 17 11 3 18 1 15 -3 -3 -5 4 -8 15 -7
11 1 20 6 20 11 0 5 7 1 16 -10 8 -10 13 -13 9 -6 -3 6 -2 12 2 12 5 0 15 -6
22 -12 10 -9 12 -9 7 -1 -8 15 93 14 113 -1 11 -8 13 -8 8 0 -4 7 2 14 13 17
11 3 18 1 15 -3 -3 -5 4 -8 15 -7 11 1 20 6 20 11 0 5 7 1 16 -10 8 -10 13
-13 9 -6 -3 6 -2 12 2 12 5 0 15 -6 22 -12 11 -11 12 -10 6 0 -5 10 0 13 21
11 16 -2 35 -8 43 -14 11 -8 13 -7 7 4 -7 10 -3 12 14 6 16 -5 20 -4 15 5 -6
9 -3 9 14 1 11 -7 21 -9 21 -5 0 3 8 0 17 -7 10 -8 14 -9 10 -2 -10 15 92 15
112 -1 11 -8 13 -8 8 0 -4 7 2 14 13 17 11 3 18 1 15 -3 -3 -5 4 -8 15 -7 11
1 20 6 20 11 0 5 7 1 16 -10 8 -10 13 -13 9 -6 -3 6 -2 12 2 12 5 0 15 -6 22
-12 8 -8 11 -8 8 -2 -5 8 21 11 88 11 52 0 92 -3 90 -7 -5 -9 47 -6 63 4 7 4
18 4 25 -1 16 -10 32 -13 97 -15 30 -1 58 -6 61 -11 4 -5 16 -4 29 3 12 7 20
8 16 2 -3 -5 1 -12 9 -16 8 -3 15 0 15 7 0 7 5 4 11 -6 7 -12 15 -15 27 -8 12
6 23 5 36 -4 10 -8 26 -12 37 -10 10 2 19 -1 19 -6 0 -6 5 -7 10 -4 6 3 10 2
10 -3 0 -5 11 -8 25 -7 14 2 23 -1 19 -6 -3 -5 7 -9 21 -9 18 0 24 -4 19 -12
-6 -10 -4 -10 8 0 14 11 17 10 23 -7 4 -13 13 -18 25 -16 11 2 20 0 20 -4 0
-4 16 -15 35 -24 19 -9 35 -21 35 -27 0 -5 7 -7 15 -4 9 4 15 0 15 -9 0 -11 7
-15 20 -12 11 2 18 0 15 -5 -3 -5 4 -11 15 -15 11 -4 18 -11 15 -16 -4 -5 3
-9 14 -9 11 0 23 -5 27 -12 5 -7 3 -8 -6 -3 -8 5 -11 4 -7 -2 4 -6 20 -16 37
-23 16 -7 30 -17 30 -22 0 -13 26 -38 39 -38 10 0 15 -14 12 -32 0 -4 6 -5 14
-2 14 6 20 -6 16 -29 -1 -5 3 -6 9 -2 10 6 15 -9 10 -30 -1 -5 1 -7 5 -3 9 8
35 -16 35 -31 0 -6 7 -11 15 -11 8 0 14 -3 14 -7 -3 -20 2 -33 14 -33 7 0 13
-10 14 -22 1 -11 7 -24 14 -28 6 -4 8 -13 5 -19 -4 -6 -4 -11 1 -10 20 3 27
-2 13 -11 -13 -9 -13 -10 0 -10 8 0 21 -9 28 -21 11 -17 11 -20 0 -14 -7 3 -4
-1 6 -9 11 -9 17 -19 13 -22 -3 -4 3 -20 14 -35 11 -16 17 -29 13 -29 -3 0 -1
-7 6 -15 6 -8 9 -19 6 -24 -4 -5 -1 -13 5 -17 8 -5 9 -3 4 7 -5 8 -4 11 0 6 5
-4 10 -15 11 -25 3 -30 9 -47 19 -54 6 -5 5 -8 -3 -8 -7 0 -10 -5 -7 -10 4 -6
12 -7 18 -3 7 4 6 0 -2 -10 -12 -15 -11 -17 3 -17 9 0 16 -5 16 -11 0 -5 -4
-8 -9 -5 -5 4 -7 -3 -4 -14 3 -11 10 -20 17 -20 6 0 5 -4 -3 -9 -12 -7 -12
-13 -3 -24 7 -7 9 -17 5 -20 -3 -4 -1 -7 7 -7 10 0 10 -4 -1 -17 -10 -11 -10
-14 -1 -9 8 5 12 0 12 -14 0 -12 5 -31 11 -42 8 -16 8 -19 -1 -13 -9 5 -10 2
-3 -11 5 -11 8 -28 8 -39 -1 -11 1 -24 5 -30 3 -5 5 -19 5 -30 0 -11 4 -23 10
-27 6 -5 5 -8 -4 -8 -10 0 -11 -3 -2 -14 9 -10 9 -16 1 -21 -7 -4 -7 -11 -2
-18 13 -17 21 -57 12 -57 -5 0 -5 -13 0 -30 5 -19 5 -30 -1 -30 -6 0 -5 -8 1
-20 6 -12 7 -20 1 -20 -6 0 -6 -11 -1 -30 5 -17 5 -30 0 -30 -5 0 -5 -13 0
-30 5 -16 5 -30 1 -30 -9 0 -8 -31 3 -48 4 -6 3 -12 -2 -12 -4 0 -6 -22 -2
-50 4 -27 3 -50 -2 -50 -5 0 -4 -9 2 -20 6 -12 7 -20 1 -20 -5 0 -7 -9 -4 -20
3 -11 1 -26 -5 -33 -6 -7 -7 -18 -3 -26 5 -8 3 -28 -5 -47 -8 -19 -11 -34 -8
-34 4 0 0 -8 -7 -17 -10 -11 -10 -14 -1 -9 6 4 12 3 12 -3 0 -5 -5 -13 -11
-17 -8 -4 -7 -9 2 -15 8 -5 9 -9 3 -9 -10 0 -14 -13 -15 -53 0 -9 -4 -15 -8
-13 -4 3 -7 -8 -6 -24 1 -17 -4 -31 -13 -35 -11 -4 -12 -8 -3 -19 9 -11 8 -17
-2 -28 -7 -7 -12 -18 -10 -25 2 -6 -1 -14 -6 -18 -6 -3 -11 -15 -11 -26 0 -10
-5 -19 -11 -19 -5 0 -7 -5 -4 -10 3 -6 -1 -13 -10 -16 -11 -5 -13 -9 -6 -13 7
-5 5 -14 -7 -27 -10 -11 -18 -29 -17 -41 1 -12 -2 -20 -6 -18 -9 6 -21 -24
-13 -36 3 -5 0 -8 -8 -7 -7 2 -12 -3 -11 -9 2 -7 -4 -13 -12 -13 -9 0 -12 -6
-9 -15 4 -9 -1 -18 -11 -21 -9 -4 -14 -13 -11 -20 3 -8 1 -14 -5 -14 -6 0 -8
-4 -5 -9 3 -5 -1 -11 -9 -15 -8 -3 -15 -11 -15 -18 0 -7 -11 -22 -25 -32 -14
-10 -25 -23 -25 -29 0 -5 -18 -27 -40 -48 -22 -22 -37 -39 -33 -39 5 -1 -4 -8
-19 -16 -16 -8 -28 -20 -28 -26 0 -6 -3 -9 -6 -5 -4 3 -22 -10 -40 -29 -21
-21 -39 -32 -47 -28 -6 4 -9 3 -4 -1 9 -11 -74 -67 -90 -60 -7 2 -13 -2 -13
-10 0 -16 -34 -38 -44 -28 -3 3 -6 -1 -6 -10 0 -10 -5 -14 -15 -11 -8 4 -17
-1 -21 -9 -3 -9 -12 -13 -19 -11 -7 3 -16 0 -20 -5 -3 -6 -11 -8 -17 -5 -6 4
-8 2 -5 -3 8 -12 -20 -26 -34 -17 -5 3 -9 1 -9 -5 0 -6 -12 -14 -27 -17 -16
-4 -34 -12 -42 -18 -12 -9 -13 -8 -6 4 7 12 6 13 -6 4 -8 -6 -25 -11 -38 -12
-13 0 -27 -6 -31 -12 -4 -6 -11 -10 -16 -9 -19 3 -35 -1 -30 -9 3 -4 -8 -7
-25 -6 -16 1 -31 -2 -34 -7 -3 -4 -13 -5 -22 -2 -9 4 -14 2 -10 -3 3 -6 -8
-10 -29 -9 -18 1 -34 -3 -34 -8 0 -7 -4 -7 -12 1 -7 7 -17 8 -30 1 -10 -5 -18
-7 -18 -3 0 3 -7 1 -15 -6 -8 -6 -19 -9 -25 -5 -6 4 -17 1 -25 -5 -12 -10 -15
-10 -15 0 0 10 -3 10 -14 1 -8 -7 -17 -8 -20 -3 -6 11 -64 3 -72 -9 -3 -5 -14
-5 -25 1 -14 8 -19 7 -19 -1 0 -9 -4 -8 -14 0 -11 10 -17 8 -25 -6 -6 -10 -11
-13 -11 -8 0 13 -40 14 -40 1 0 -5 -3 -6 -7 -3 -3 4 -12 2 -20 -4 -7 -6 -13
-7 -13 -2 0 5 -9 9 -20 10 -11 1 -18 -2 -16 -6 3 -4 -5 -6 -17 -5 -12 1 -22 3
-22 4 0 6 -169 4 -178 -2 -6 -4 -17 -2 -24 4 -9 7 -17 7 -28 -2 -8 -7 -15 -8
-15 -3 0 5 -9 9 -20 10 -11 1 -18 -2 -16 -6 5 -8 -23 -8 -39 0 -10 5 -68 3
-110 -3 -11 -2 -24 -8 -28 -15 -10 -16 14 -53 35 -53 9 0 18 -6 21 -12 3 -10
7 -10 20 1 10 7 17 9 17 4 0 -5 17 -10 37 -11 21 -2 42 -7 47 -12 6 -6 19 -10
31 -10 11 0 31 -8 44 -17 18 -12 22 -13 16 -2 -7 11 -6 12 7 2 8 -7 19 -9 23
-5 5 4 5 1 1 -5 -4 -8 -1 -13 8 -13 9 0 16 -4 16 -10 0 -5 7 -7 15 -4 8 4 15
1 15 -6 0 -6 5 -8 10 -5 6 3 10 1 10 -4 0 -6 7 -11 15 -11 9 0 18 -7 21 -15 4
-8 10 -12 15 -9 5 3 9 0 9 -5 0 -6 7 -11 17 -11 9 0 13 -3 10 -6 -3 -4 7 -19
23 -34 16 -15 26 -31 22 -35 -4 -3 -2 -6 3 -5 19 4 48 0 42 -6 -7 -8 25 -44
34 -38 4 2 10 -4 14 -15 3 -10 19 -29 35 -41 16 -12 27 -28 23 -34 -3 -6 -3
-8 2 -4 9 8 35 -15 35 -31 0 -6 7 -11 16 -11 8 0 12 -5 9 -10 -3 -6 4 -14 17
-19 13 -6 19 -10 13 -10 -5 -1 3 -12 19 -26 16 -14 25 -25 20 -25 -5 0 5 -9
21 -20 17 -11 26 -20 20 -20 -5 0 1 -10 14 -20 13 -11 20 -20 16 -20 -4 0 7
-13 25 -30 18 -17 26 -30 19 -30 -9 -1 -8 -4 4 -11 9 -6 14 -15 11 -21 -4 -6
-3 -9 2 -6 11 7 35 -17 27 -26 -4 -3 -1 -6 6 -6 7 0 9 -4 6 -10 -6 -9 8 -14
28 -11 5 1 6 -7 2 -18 -3 -12 0 -21 10 -25 8 -3 15 -12 15 -21 0 -8 5 -15 12
-15 6 0 9 -3 6 -6 -4 -3 2 -14 13 -25 11 -11 17 -25 13 -31 -4 -6 -3 -8 3 -5
6 4 15 -5 22 -19 6 -15 16 -22 23 -18 7 5 9 0 6 -14 -4 -15 -2 -22 8 -22 8 0
14 -7 14 -15 0 -7 8 -19 18 -24 9 -6 13 -11 8 -11 -5 0 1 -9 13 -19 16 -14 18
-21 9 -24 -9 -4 -7 -6 4 -6 9 -1 21 -15 27 -31 5 -17 17 -33 26 -36 8 -3 15
-12 15 -19 0 -7 3 -15 8 -17 4 -1 21 -23 37 -48 29 -43 34 -50 63 -84 6 -8 12
-18 12 -22 0 -4 10 -19 23 -32 12 -14 15 -21 7 -17 -13 8 -13 6 -1 -8 7 -9 18
-14 24 -10 5 3 7 1 3 -5 -3 -6 1 -18 10 -26 8 -9 12 -16 8 -16 -4 0 5 -11 20
-25 15 -14 22 -25 17 -25 -6 0 -3 -9 7 -20 9 -10 26 -30 37 -42 22 -24 25 -31
25 -49 0 -5 5 -7 10 -4 5 3 10 -1 10 -9 0 -9 5 -16 11 -16 5 0 8 -4 5 -8 -3
-5 4 -14 14 -22 10 -8 17 -17 14 -22 -3 -4 0 -8 5 -8 6 0 11 -7 11 -15 0 -8 5
-15 10 -15 6 0 10 -7 10 -15 0 -8 5 -15 10 -15 6 0 10 -7 10 -15 0 -7 6 -18
14 -22 7 -4 21 -23 30 -41 10 -19 21 -30 28 -26 6 4 8 3 4 -4 -3 -6 1 -17 9
-25 8 -9 15 -23 15 -32 0 -9 5 -13 10 -10 6 3 10 1 10 -5 0 -6 9 -20 20 -32
11 -12 20 -27 20 -34 0 -6 7 -15 16 -18 10 -4 14 -12 10 -22 -6 -14 -4 -15 9
-4 9 7 15 9 14 4 -2 -16 13 -54 23 -54 5 0 7 -4 4 -9 -3 -5 1 -11 9 -15 8 -3
15 -12 15 -21 0 -8 5 -15 10 -15 6 0 10 -7 10 -15 0 -8 5 -15 10 -15 6 0 10
-7 10 -16 0 -8 4 -12 10 -9 5 3 10 -1 10 -9 0 -9 5 -16 10 -16 6 0 10 -7 10
-15 0 -8 9 -24 20 -35 11 -11 18 -20 15 -20 -3 0 3 -9 12 -19 9 -11 20 -18 25
-15 4 3 5 -2 2 -11 -4 -9 3 -23 16 -35 13 -11 20 -20 16 -20 -4 0 -1 -6 6 -14
7 -8 16 -12 21 -9 4 2 7 -5 7 -16 0 -12 4 -21 8 -21 12 0 42 -56 34 -65 -4 -5
-2 -5 4 -2 6 4 20 -3 30 -15 12 -14 14 -19 4 -13 -8 4 -6 -1 5 -12 11 -11 23
-19 28 -16 4 2 7 -3 7 -11 0 -9 4 -16 9 -16 5 0 11 -9 14 -20 3 -11 12 -20 21
-20 9 0 16 -6 16 -14 0 -18 54 -58 65 -48 5 4 5 1 1 -5 -4 -8 -2 -13 5 -13 7
0 10 -3 6 -6 -7 -7 41 -54 55 -54 5 0 6 -4 3 -10 -3 -5 -1 -10 5 -10 15 0 41
-26 33 -34 -4 -3 1 -6 10 -6 8 0 19 -9 22 -20 3 -11 12 -20 20 -20 7 0 15 -9
18 -20 3 -13 10 -18 21 -14 9 3 16 1 16 -6 0 -12 24 -40 35 -40 3 0 19 -13 34
-29 16 -16 31 -27 34 -24 3 3 16 -5 29 -17 13 -13 17 -19 9 -15 -10 5 -12 4
-7 -4 4 -6 11 -9 16 -6 5 3 15 -1 23 -9 8 -8 17 -12 21 -9 3 4 6 1 6 -6 0 -7
6 -11 13 -8 6 2 17 -5 24 -17 7 -13 12 -15 13 -7 0 10 6 7 19 -7 10 -12 21
-19 25 -15 3 3 6 1 6 -6 0 -7 5 -9 10 -6 6 3 10 1 10 -4 0 -6 9 -11 20 -11 11
0 20 -4 20 -10 0 -5 7 -10 16 -10 9 0 12 -5 8 -12 -5 -8 -2 -9 9 -5 10 4 20 0
26 -11 7 -11 10 -12 11 -4 0 10 4 10 16 -2 8 -9 22 -16 30 -16 8 0 17 -7 21
-16 5 -13 7 -13 14 -2 7 10 9 10 9 1 0 -7 8 -13 18 -13 11 0 27 -9 37 -20 12
-14 22 -17 28 -11 7 7 17 3 29 -11 12 -14 18 -17 18 -7 0 11 2 11 10 -1 5 -8
10 -12 10 -7 0 4 14 0 31 -9 18 -9 28 -11 24 -4 -4 7 4 4 19 -5 14 -10 26 -14
26 -10 0 4 6 3 13 -4 10 -8 17 -7 27 2 10 9 11 9 6 0 -4 -8 -1 -13 8 -14 28
-2 56 -6 59 -9 3 -2 45 -10 70 -12 9 -1 17 -6 17 -11 0 -5 7 -4 15 3 10 8 15
9 15 2 0 -14 52 -11 63 3 4 7 10 7 15 0 8 -12 27 -13 38 -3 4 4 13 3 20 -2 14
-12 36 -10 47 5 4 7 10 7 15 0 8 -12 22 -13 39 -2 6 4 14 3 17 -1 6 -10 42 -9
52 1 4 3 15 2 25 -4 14 -7 19 -6 19 3 0 8 3 9 8 3 11 -15 32 -17 32 -3 0 10 2
10 9 0 11 -17 21 -17 32 0 6 8 9 9 9 1 0 -12 24 -12 36 0 4 4 13 2 20 -3 14
-12 36 -10 47 5 4 7 10 7 15 0 8 -12 27 -13 38 -3 4 4 13 3 20 -2 14 -12 36
-10 47 5 4 7 10 7 15 0 8 -12 22 -13 39 -2 6 4 15 2 19 -4 4 -8 9 -7 15 2 6 9
9 10 9 2 0 -12 17 -12 37 0 6 4 15 2 18 -3 5 -7 12 -5 21 7 13 17 14 17 8 -2
-5 -18 -4 -18 6 -2 16 25 -7 54 -42 52 -16 -1 -28 1 -28 5 0 4 -13 7 -30 7
-18 0 -27 -4 -23 -11 3 -6 1 -6 -7 1 -7 6 -19 9 -26 6 -8 -3 -14 0 -14 6 0 6
-5 11 -11 11 -5 0 -8 -4 -5 -8 3 -5 -8 -6 -24 -4 -17 2 -28 7 -25 11 2 4 -2 8
-10 8 -8 0 -15 -5 -15 -11 0 -6 -5 -4 -10 4 -5 8 -10 12 -10 8 0 -4 -21 -1
-47 7 -26 8 -49 12 -52 10 -2 -3 -13 3 -24 12 -15 13 -18 14 -12 3 5 -9 0 -8
-13 4 -17 14 -22 16 -22 5 0 -11 -2 -11 -10 1 -5 8 -10 11 -10 7 0 -5 -13 1
-29 12 -16 12 -34 21 -39 21 -5 0 -35 13 -66 29 -31 17 -56 28 -56 25 0 -2 -9
5 -21 17 -11 11 -27 18 -35 15 -9 -3 -12 -1 -9 4 3 6 0 10 -9 10 -8 0 -16 4
-18 9 -2 5 -9 11 -17 13 -8 2 -28 15 -44 31 -17 15 -36 27 -44 27 -8 0 -11 4
-8 10 3 5 0 10 -7 10 -8 0 -20 9 -28 19 -7 11 -18 17 -24 14 -5 -4 -7 0 -3 9
3 10 0 15 -11 14 -9 0 -16 5 -14 12 1 6 -4 12 -12 12 -7 0 -19 7 -26 15 -7 8
-16 12 -21 9 -5 -3 -6 2 -3 11 4 10 2 15 -7 13 -8 -2 -13 3 -11 10 2 11 -11
17 -33 12 -5 -1 -7 2 -3 6 12 11 -32 66 -48 60 -8 -3 -14 -1 -14 5 0 15 -26
39 -34 32 -3 -4 -6 1 -6 11 0 9 -4 14 -10 11 -5 -3 -10 1 -10 9 0 8 -9 18 -20
21 -11 3 -20 13 -20 21 0 8 -7 14 -15 14 -9 0 -12 6 -8 17 4 11 3 14 -5 9 -7
-4 -12 -1 -12 9 0 9 -4 13 -10 10 -5 -3 -10 1 -10 10 0 9 -5 13 -10 10 -5 -3
-10 1 -10 10 0 9 -3 14 -7 12 -5 -2 -18 6 -31 19 -12 13 -20 24 -16 24 4 0 -5
9 -20 21 -14 11 -26 27 -26 35 0 8 -4 13 -9 10 -5 -3 -15 2 -22 11 -12 14 -12
16 1 8 13 -8 13 -7 1 8 -7 9 -20 17 -28 17 -8 0 -11 5 -8 10 3 6 1 10 -5 10
-6 0 -8 5 -5 10 3 6 1 10 -5 10 -6 0 -8 5 -5 10 4 6 3 9 -2 8 -10 -4 -53 38
-53 52 0 6 -4 10 -10 10 -5 0 -10 7 -10 16 0 8 -3 13 -7 11 -5 -3 -14 1 -21 9
-7 8 -10 14 -6 14 4 0 -5 12 -19 26 -15 15 -24 30 -21 35 3 5 -4 9 -15 9 -14
0 -19 5 -15 15 4 8 -1 17 -10 21 -9 3 -13 10 -10 15 3 5 0 9 -6 9 -6 0 -8 5
-5 10 4 6 1 9 -7 8 -7 -2 -12 3 -10 10 2 11 -10 16 -31 13 -4 0 -7 2 -6 6 2
16 -14 53 -22 53 -5 0 -9 7 -9 16 0 8 -4 12 -10 9 -5 -3 -10 -2 -10 4 0 6 -10
20 -22 32 -13 12 -17 19 -10 14 11 -6 11 -3 1 13 -7 11 -18 18 -25 15 -9 -3
-12 2 -9 16 3 19 -5 26 -27 22 -5 0 -8 6 -8 14 0 14 -16 37 -47 70 -7 8 -13
17 -13 22 0 5 -9 15 -20 23 -11 8 -20 20 -20 27 0 7 -4 13 -10 13 -5 0 -10 7
-10 15 0 8 -5 15 -11 15 -5 0 -8 3 -6 8 5 9 -29 42 -37 35 -3 -3 -4 4 -1 16 3
16 -1 21 -16 21 -10 0 -19 3 -18 8 3 17 -14 51 -22 46 -5 -3 -9 4 -9 16 0 12
-4 19 -9 16 -5 -4 -15 7 -23 24 -7 17 -21 33 -32 36 -13 4 -15 8 -6 14 8 5 7
9 -6 14 -9 3 -14 9 -11 12 3 4 -8 20 -24 37 -24 23 -27 32 -17 39 9 6 5 7 -11
3 -19 -6 -23 -4 -18 9 4 11 1 16 -11 17 -10 0 -12 3 -5 6 16 6 -6 43 -25 43
-7 0 -10 5 -7 10 3 6 1 10 -5 10 -6 0 -9 4 -6 9 3 5 -1 11 -9 15 -8 3 -15 12
-15 21 0 8 -5 15 -12 15 -6 0 -8 3 -5 7 4 3 -2 13 -13 20 -11 8 -18 19 -15 24
4 5 1 9 -4 9 -6 0 -11 7 -11 16 0 8 -4 12 -10 9 -9 -5 -14 8 -7 19 1 2 -9 14
-23 26 -14 12 -18 19 -10 15 8 -3 5 2 -7 11 -13 9 -23 23 -23 31 0 8 -5 11
-11 7 -8 -5 -10 1 -7 19 4 18 1 24 -9 20 -7 -3 -13 1 -13 10 0 8 -7 18 -16 21
-8 3 -12 10 -9 16 3 5 1 10 -4 10 -6 0 -11 7 -11 16 0 8 -4 12 -10 9 -5 -3
-10 4 -10 15 0 16 -4 20 -16 16 -8 -3 -12 -2 -9 4 3 6 1 10 -4 10 -6 0 -11 7
-11 15 0 8 -5 15 -10 15 -6 0 -15 11 -22 25 -6 13 -15 22 -19 19 -5 -3 -9 2
-9 10 0 9 -4 16 -9 16 -5 0 -13 9 -16 20 -3 11 -14 20 -23 20 -15 0 -15 2 -2
11 12 9 11 10 -7 6 -15 -3 -20 -1 -16 9 3 8 0 14 -6 14 -7 0 -15 8 -18 17 -11
28 -36 52 -46 46 -6 -3 -7 -1 -3 5 4 7 2 12 -3 12 -6 0 -11 9 -11 20 0 11 -3
19 -7 17 -5 -1 -8 2 -8 7 0 5 -10 12 -22 17 -13 5 -23 16 -23 24 0 9 -4 14 -8
11 -10 -6 -43 30 -35 38 4 3 -1 6 -10 6 -9 0 -21 8 -26 18 -6 9 -11 14 -11 10
0 -4 -9 0 -19 9 -11 9 -18 20 -15 25 3 4 -2 8 -10 8 -9 0 -16 8 -16 18 0 14
-2 15 -10 2 -6 -10 -10 -11 -10 -3 0 7 -18 22 -40 33 -25 13 -38 25 -34 32 4
7 3 8 -4 4 -7 -4 -12 -3 -12 3 0 6 -6 8 -14 5 -7 -3 -16 2 -20 11 -4 11 -2 14
7 9 9 -6 9 -5 0 7 -18 22 0 43 31 37 14 -3 23 -2 20 3 -5 8 0 9 86 9 22 0 44
5 57 13 6 4 14 1 17 -5 3 -9 9 -7 20 6 12 15 16 16 16 5 1 -10 4 -10 14 4 9
12 16 14 21 8 3 -6 11 -11 16 -11 6 0 7 5 4 10 -4 6 6 10 24 10 16 0 33 5 36
10 4 6 11 8 16 5 5 -4 9 -1 9 5 0 6 5 8 10 5 6 -4 22 1 36 10 13 9 29 13 34
10 5 -3 13 3 19 12 6 10 11 14 11 9 0 -5 8 -2 17 5 11 9 14 10 9 2 -5 -9 -2
-11 8 -7 9 3 16 10 16 16 0 5 4 7 9 3 5 -3 13 0 16 6 4 5 14 8 22 5 8 -3 11
-1 8 4 -3 6 3 10 14 10 12 0 21 5 21 10 0 6 5 10 11 10 6 0 17 7 25 15 9 8 24
15 34 15 10 0 21 7 24 16 3 8 10 12 16 9 5 -3 10 -1 10 4 0 6 6 10 13 8 6 -1
11 4 10 10 -2 7 3 12 10 10 6 -1 11 3 10 10 -2 7 3 10 11 7 7 -3 16 2 20 11 4
10 12 15 22 11 8 -3 13 -2 10 2 -3 5 5 15 16 23 12 8 34 27 50 42 15 15 28 25
28 22 0 -4 7 0 15 9 8 8 15 22 15 30 0 10 6 13 18 9 9 -3 14 -3 11 1 -8 8 42
62 54 58 4 -1 7 3 7 8 0 13 37 50 51 50 5 0 7 5 4 10 -3 6 -1 10 5 10 7 0 9 7
6 16 -3 8 -2 13 3 9 5 -3 19 11 31 30 12 19 26 35 31 35 5 0 14 11 19 25 5 14
14 25 20 25 6 0 9 3 7 8 -7 10 19 32 29 24 5 -4 2 2 -6 12 -10 13 -10 17 -2
12 7 -4 12 -1 12 8 0 9 5 16 10 16 6 0 10 7 10 16 0 9 5 12 12 8 7 -4 8 -3 4
4 -4 7 2 22 13 34 12 12 21 30 21 40 0 11 4 17 8 14 4 -2 14 5 22 17 12 21 12
21 -6 7 -14 -10 -13 -7 4 11 12 14 19 29 15 32 -3 4 2 7 12 7 14 0 15 3 6 14
-8 10 -9 15 -1 18 6 2 12 13 13 25 0 12 4 20 7 18 8 -5 40 60 40 80 0 8 5 15
11 15 5 0 8 4 4 9 -3 5 -1 12 5 16 6 4 8 10 5 15 -3 5 -1 11 4 15 5 3 8 14 6
25 -2 12 0 18 6 15 5 -4 9 5 9 19 0 14 5 26 10 26 6 0 10 8 10 18 0 10 6 24
13 31 10 11 9 12 -3 6 -12 -7 -13 -6 -3 7 7 8 10 18 6 21 -3 4 -1 7 5 7 6 0 9
9 7 20 -2 11 1 20 7 20 5 0 8 7 4 15 -3 8 0 15 7 15 8 0 8 3 -2 9 -11 7 -10
11 5 20 13 7 15 10 4 11 -11 0 -11 3 -2 12 7 7 12 25 12 40 0 15 5 28 11 28 8
0 8 5 -1 15 -10 12 -10 15 0 15 10 0 10 3 0 15 -7 9 -8 15 -2 15 6 0 9 11 7
25 -1 14 2 25 7 25 5 0 6 5 3 10 -4 6 -1 18 7 27 7 9 8 14 2 10 -8 -4 -11 2
-10 17 0 13 4 22 7 20 11 -7 7 51 -5 65 -8 11 -8 13 1 7 10 -5 12 9 11 61 -1
38 2 74 5 80 4 7 2 15 -4 18 -5 4 -8 13 -5 21 3 8 2 14 -2 14 -5 0 -7 16 -6
35 2 22 -1 35 -9 35 -8 0 -8 3 2 9 9 6 10 11 3 15 -6 4 -9 13 -5 21 3 8 0 15
-7 15 -10 0 -10 3 0 15 10 12 10 15 0 15 -10 0 -10 3 -1 14 9 11 9 16 0 21 -8
6 -7 10 2 16 10 6 11 9 2 9 -7 0 -13 9 -13 21 0 11 -4 28 -9 38 -5 9 -11 35
-13 57 -3 21 -10 49 -17 62 -6 12 -9 27 -6 32 3 5 1 11 -5 15 -6 4 -8 11 -5
16 4 5 2 9 -4 9 -6 0 -8 7 -5 15 4 9 0 15 -7 15 -12 0 -12 2 -1 9 11 7 11 9
-2 14 -9 4 -13 13 -10 21 3 8 0 17 -5 21 -6 3 -9 11 -6 16 4 5 2 9 -4 9 -6 0
-8 7 -5 15 3 8 -1 21 -10 30 -8 9 -13 22 -10 30 4 8 1 15 -5 15 -6 0 -11 7
-11 16 0 9 -9 29 -21 45 -11 16 -17 33 -14 39 3 5 3 10 -2 10 -4 0 -17 13 -28
28 -18 26 -18 26 0 12 18 -14 18 -14 0 12 -11 15 -23 28 -27 28 -5 0 -8 7 -8
15 0 8 -4 15 -10 15 -5 0 -7 7 -4 15 4 10 0 15 -11 15 -9 0 -14 4 -10 9 3 6
-3 14 -12 20 -10 5 -15 12 -11 16 3 3 -4 17 -16 30 -11 13 -31 35 -43 48 -12
14 -19 28 -16 31 4 3 -1 6 -11 6 -9 0 -15 3 -13 8 5 9 -30 42 -37 35 -6 -6
-10 12 -7 30 0 4 -4 7 -9 7 -6 0 -10 7 -10 17 0 9 -3 14 -6 10 -8 -8 -34 18
-34 34 0 7 -3 10 -6 6 -3 -3 -20 7 -38 23 -17 17 -36 30 -43 30 -6 0 -14 9
-18 19 -3 11 -12 18 -19 15 -7 -3 -16 2 -19 10 -4 9 -13 16 -22 16 -8 0 -15 8
-16 18 0 9 -3 12 -5 5 -4 -8 -11 -7 -23 5 -10 9 -17 19 -15 22 1 3 -6 7 -18 7
-11 1 -27 10 -36 20 -10 10 -24 19 -32 21 -8 2 -16 8 -18 13 -2 5 -10 9 -18 9
-8 0 -14 5 -14 11 0 5 -4 7 -10 4 -5 -3 -10 -1 -10 4 0 6 -5 11 -11 11 -5 0
-7 -6 -4 -12 4 -7 -2 -3 -13 9 -11 12 -23 19 -26 15 -4 -4 -16 4 -28 18 -11
14 -17 19 -13 13 7 -15 -11 -18 -20 -3 -3 6 -15 10 -26 10 -10 0 -19 5 -19 11
0 5 -4 7 -10 4 -5 -3 -10 -1 -10 5 0 6 -4 8 -10 5 -5 -3 -16 -3 -22 2 -13 8
-18 9 -39 12 -5 0 -8 5 -5 9 4 7 -3 9 -59 13 -13 1 -22 5 -19 10 3 5 -2 6 -10
3 -9 -3 -16 -2 -16 3 0 6 -12 9 -27 8 -16 -1 -31 3 -34 7 -3 5 -20 10 -37 10
-17 1 -29 4 -27 9 3 4 -3 6 -12 4 -10 -1 -26 2 -37 7 -13 7 -21 6 -27 -3 -7
-12 -9 -12 -9 0 0 7 -6 11 -14 8 -8 -3 -16 -2 -18 3 -2 5 -18 10 -35 12 -18 1
-33 7 -33 13 0 5 -4 4 -9 -3 -11 -17 -21 -17 -32 0 -6 8 -9 9 -9 1 0 -13 -18
-12 -39 1 -11 7 -12 6 -6 -5 7 -11 6 -12 -6 -3 -8 6 -32 12 -54 13 -133 4
-171 8 -183 14 -7 5 -12 3 -12 -3 0 -7 -6 -8 -18 -1 -20 11 -40 10 -61 -3 -10
-6 -12 -5 -7 3 9 14 -30 11 -53 -3 -10 -6 -12 -5 -7 2 4 7 1 12 -8 12 -9 0
-16 -6 -16 -12 0 -8 -3 -9 -8 -3 -10 15 -142 16 -142 2 0 -9 -2 -9 -8 0 -8 13
-29 12 -51 -1 -10 -6 -12 -5 -7 2 4 7 1 12 -8 12 -9 0 -16 -6 -16 -12 0 -8 -3
-9 -8 -3 -10 15 -142 16 -142 2 0 -9 -2 -9 -8 0 -8 13 -29 12 -51 -1 -10 -6
-12 -5 -7 2 4 7 1 12 -8 12 -9 0 -16 -6 -16 -12 0 -8 -3 -9 -8 -3 -10 15 -142
16 -142 2 0 -9 -2 -9 -8 0 -8 13 -29 12 -51 -1 -10 -6 -12 -5 -7 2 4 7 1 12
-8 12 -9 0 -16 -6 -16 -12 0 -8 -3 -9 -8 -3 -10 15 -142 16 -142 2 0 -9 -2 -9
-8 0 -8 13 -29 12 -51 -1 -10 -6 -12 -5 -7 2 4 7 1 12 -8 12 -9 0 -16 -6 -16
-12 0 -9 -3 -9 -8 -2 -4 5 -29 10 -57 9 -27 0 -56 4 -64 10 -11 7 -13 7 -7 -2
5 -10 -1 -12 -26 -9 -18 2 -39 -1 -47 -8 -11 -8 -13 -8 -7 2 4 7 1 12 -8 12
-9 0 -16 -6 -16 -12 0 -8 -3 -9 -8 -3 -10 15 -142 16 -142 2 0 -9 -2 -9 -8 0
-8 13 -29 12 -51 -1 -10 -6 -12 -5 -7 2 4 7 1 12 -8 12 -9 0 -16 -6 -16 -12 0
-8 -3 -9 -8 -3 -10 15 -142 16 -142 2 0 -9 -2 -9 -8 0 -8 13 -29 12 -51 -1
-10 -6 -12 -5 -7 2 10 16 -16 15 -33 0 -11 -10 -13 -10 -7 0 9 15 -20 17 -29
2 -4 -6 -12 -7 -18 -3 -21 13 -127 13 -127 0 0 -7 -4 -6 -9 2 -8 12 -12 12
-24 2 -11 -9 -17 -9 -22 -1 -4 6 -13 9 -20 6 -7 -2 -18 1 -25 7 -10 9 -11 9
-6 0 5 -10 -2 -12 -26 -9 -18 2 -39 -1 -47 -8 -11 -8 -13 -8 -7 2 4 7 1 12 -8
12 -9 0 -16 -6 -16 -12 0 -8 -3 -9 -8 -3 -10 15 -142 16 -142 2 0 -9 -2 -9 -8
0 -8 13 -29 12 -51 -1 -10 -6 -12 -5 -7 2 5 8 -3 11 -26 9 -18 -2 -39 1 -47 7
-12 9 -13 8 -6 -3z"/>
</g>
</svg>
